<svg width="85" height="85" viewBox="0 0 85 85" fill="none" xmlns="http://www.w3.org/2000/svg">
<g clip-path="url(#clip0)">
<path d="M42.5 74.8733V49.4133L50.54 56.56L67.0667 47.6267V61.4733L42.5 74.8733Z" fill="#00AAE7"/>
<path d="M68.5506 35.1584L75.6165 28.0925C75.9079 27.8017 76.0449 27.3902 75.9866 26.9828C75.9288 26.5754 75.6819 26.2186 75.3211 26.0202L58.1115 16.5707C57.4782 16.2232 56.6828 16.4547 56.3347 17.0881C55.9871 17.7219 56.2182 18.5173 56.852 18.8649L72.5331 27.475L66.4691 33.5385L44.6591 21.5623L50.7226 15.4988L56.852 18.8649C57.4853 19.2125 58.2812 18.9814 58.6288 18.3476C58.9769 17.7142 58.7454 16.9183 58.1115 16.5707L51.1213 12.7319C50.6111 12.4517 49.9773 12.5422 49.5663 12.9537L42.4999 20.0201L35.4335 12.9537C35.022 12.5422 34.3881 12.4523 33.8785 12.7319L9.67872 26.0202C9.31784 26.2186 9.07094 26.5748 9.01318 26.9828C8.95491 27.3902 9.0919 27.8017 9.38327 28.0925L16.4492 35.1584L9.38327 42.2238C9.0919 42.5152 8.95491 42.9261 9.01318 43.3341C9.07094 43.7415 9.31784 44.0982 9.67872 44.2961L16.9915 48.3118V61.7341C16.9915 62.212 17.2517 62.6517 17.6703 62.8817L41.8701 76.1695C42.0664 76.2774 42.2832 76.3311 42.4999 76.3311C42.7166 76.3311 42.9334 76.2774 43.1297 76.1695L67.3294 62.8817C67.7481 62.6517 68.0083 62.212 68.0083 61.7341V48.3118L75.3211 44.2966C75.6819 44.0982 75.9288 43.7415 75.9866 43.3341C76.0449 42.9266 75.9079 42.5152 75.6165 42.2243L68.5506 35.1584ZM42.4999 46.9531L21.019 35.1579L42.4999 23.3621L63.9808 35.1579L42.4999 46.9531ZM34.2777 15.4988L40.3407 21.5623L18.5306 33.5385L12.4672 27.475L34.2777 15.4988ZM18.5317 36.7778L40.3417 48.754L34.2777 54.818L12.4672 42.8418L18.5317 36.7778ZM65.3911 60.9602L43.8085 72.8111V50.2967C43.8085 49.5739 43.2227 48.9881 42.4999 48.9881C41.7771 48.9881 41.1913 49.5739 41.1913 50.2967V72.8111L19.6087 60.9602V49.7492L33.8785 57.5849C34.0763 57.6933 34.2931 57.7465 34.5078 57.7465C34.8467 57.7465 35.182 57.6146 35.4335 57.3631L42.4999 50.2967L49.5663 57.3631C49.8178 57.6151 50.1531 57.7465 50.492 57.7465C50.7067 57.7465 50.9235 57.6933 51.1213 57.5849L65.3911 49.7492V60.9602ZM50.7226 54.818L44.6586 48.7535L66.4686 36.7778L72.5331 42.8413L50.7226 54.818Z" fill="#003E7E"/>
</g>
<defs>
<clipPath id="clip0">
<rect width="67" height="67" fill="white" transform="translate(9 11)"/>
</clipPath>
</defs>
</svg>

