<svg width="85" height="85" viewBox="0 0 85 85" fill="none" xmlns="http://www.w3.org/2000/svg">
<path d="M29.7677 70H14.802C14.5893 70 14.3853 69.9201 14.2349 69.7778C14.0845 69.6356 14 69.4426 14 69.2415V30.5179C14 30.3167 14.0845 30.1238 14.2349 29.9815C14.3853 29.8393 14.5893 29.7593 14.802 29.7593H29.7677C29.9804 29.7593 30.1844 29.8393 30.3348 29.9815C30.4852 30.1238 30.5697 30.3167 30.5697 30.5179V69.2415C30.5697 69.4426 30.4852 69.6356 30.3348 69.7778C30.1844 69.9201 29.9804 70 29.7677 70ZM15.604 68.4829H28.9657V31.2764H15.604V68.4829Z" fill="#003E7E"/>
<path d="M69.2189 70H54.2532C54.0405 70 53.8365 69.92 53.6861 69.7775C53.5357 69.635 53.4512 69.4418 53.4512 69.2403V41.5655C53.4512 41.364 53.5357 41.1708 53.6861 41.0283C53.8365 40.8858 54.0405 40.8058 54.2532 40.8058H69.2189C69.4316 40.8058 69.6356 40.8858 69.786 41.0283C69.9364 41.1708 70.0209 41.364 70.0209 41.5655V69.2403C70.0209 69.4418 69.9364 69.635 69.786 69.7775C69.6356 69.92 69.4316 70 69.2189 70ZM55.0551 68.4805H68.4169V42.3253H55.0551V68.4805Z" fill="#003E7E"/>
<path d="M54.2771 69.9787H29.744C29.5319 69.9787 29.3285 69.8944 29.1786 69.7444C29.0286 69.5945 28.9443 69.3911 28.9443 69.179V14.7997C28.9443 14.5876 29.0286 14.3842 29.1786 14.2342C29.3285 14.0843 29.5319 14 29.744 14H54.2771C54.4892 14 54.6926 14.0843 54.8426 14.2342C54.9925 14.3842 55.0768 14.5876 55.0768 14.7997V69.179C55.0768 69.3911 54.9925 69.5945 54.8426 69.7444C54.6926 69.8944 54.4892 69.9787 54.2771 69.9787ZM30.5437 68.3793H53.4774V15.5994H30.5437V68.3793Z" fill="#003E7E"/>
<path d="M48.2077 69.9787H35.8124C35.6003 69.9787 35.3969 69.8945 35.2469 69.7445C35.0969 69.5945 35.0127 69.3911 35.0127 69.179V50.2718C35.0127 50.0598 35.0969 49.8564 35.2469 49.7064C35.3969 49.5564 35.6003 49.4722 35.8124 49.4722H48.2077C48.4198 49.4722 48.6232 49.5564 48.7731 49.7064C48.9231 49.8564 49.0074 50.0598 49.0074 50.2718V69.179C49.0074 69.3911 48.9231 69.5945 48.7731 69.7445C48.6232 69.8945 48.4198 69.9787 48.2077 69.9787ZM36.6121 68.3793H47.408V51.0715H36.6121V68.3793Z" fill="#003E7E"/>
<path d="M24.8168 41.6366H19.7499C19.5378 41.6366 19.3344 41.5523 19.1844 41.4024C19.0344 41.2524 18.9502 41.049 18.9502 40.8369V35.7716C18.9502 35.5595 19.0344 35.3561 19.1844 35.2062C19.3344 35.0562 19.5378 34.9719 19.7499 34.9719H24.8168C25.0288 34.9719 25.2323 35.0562 25.3822 35.2062C25.5322 35.3561 25.6165 35.5595 25.6165 35.7716V40.8369C25.6165 41.049 25.5322 41.2524 25.3822 41.4024C25.2323 41.5523 25.0288 41.6366 24.8168 41.6366ZM20.552 40.0372H24.0171V36.5713H20.5496L20.552 40.0372Z" fill="#003E7E"/>
<path d="M24.8168 52.0991H19.7499C19.5378 52.0991 19.3344 52.0149 19.1844 51.8649C19.0344 51.7149 18.9502 51.5115 18.9502 51.2994V46.235C18.9502 46.0229 19.0344 45.8195 19.1844 45.6695C19.3344 45.5195 19.5378 45.4353 19.7499 45.4353H24.8168C25.0288 45.4353 25.2323 45.5195 25.3822 45.6695C25.5322 45.8195 25.6165 46.0229 25.6165 46.235V51.2994C25.6165 51.5115 25.5322 51.7149 25.3822 51.8649C25.2323 52.0149 25.0288 52.0991 24.8168 52.0991ZM20.552 50.4997H24.0171V47.0347H20.5496L20.552 50.4997Z" fill="#003E7E"/>
<path d="M64.2708 52.0991H59.204C58.9919 52.0991 58.7885 52.0149 58.6385 51.8649C58.4885 51.7149 58.4043 51.5115 58.4043 51.2994V46.235C58.4043 46.0229 58.4885 45.8195 58.6385 45.6695C58.7885 45.5195 58.9919 45.4353 59.204 45.4353H64.2684C64.4805 45.4353 64.6839 45.5195 64.8339 45.6695C64.9839 45.8195 65.0681 46.0229 65.0681 46.235V51.2994C65.0681 51.5111 64.9842 51.7142 64.8348 51.8641C64.6853 52.014 64.4825 52.0985 64.2708 52.0991V52.0991ZM60.0061 50.4997H63.4712V47.0347H60.0037L60.0061 50.4997Z" fill="#003E7E"/>
<path d="M39.2915 25.1726H34.2255C34.0134 25.1726 33.81 25.0883 33.66 24.9383C33.51 24.7884 33.4258 24.5849 33.4258 24.3729V19.3084C33.4258 19.0963 33.51 18.8929 33.66 18.7429C33.81 18.5929 34.0134 18.5087 34.2255 18.5087H39.2915C39.5036 18.5087 39.707 18.5929 39.857 18.7429C40.007 18.8929 40.0912 19.0963 40.0912 19.3084V24.3729C40.0912 24.5849 40.007 24.7884 39.857 24.9383C39.707 25.0883 39.5036 25.1726 39.2915 25.1726ZM35.0268 23.5732H38.4918V20.1081H35.0252L35.0268 23.5732Z" fill="#003E7E"/>
<path d="M39.2915 35.6359H34.2255C34.0134 35.6359 33.81 35.5516 33.66 35.4017C33.51 35.2517 33.4258 35.0483 33.4258 34.8362V29.7709C33.4258 29.5588 33.51 29.3554 33.66 29.2054C33.81 29.0555 34.0134 28.9712 34.2255 28.9712H39.2915C39.5036 28.9712 39.707 29.0555 39.857 29.2054C40.007 29.3554 40.0912 29.5588 40.0912 29.7709V34.8362C40.0912 35.0483 40.007 35.2517 39.857 35.4017C39.707 35.5516 39.5036 35.6359 39.2915 35.6359ZM35.0268 34.0365H38.4918V30.5706H35.0252L35.0268 34.0365Z" fill="#003E7E"/>
<path d="M39.2915 46.0982H34.2255C34.0134 46.0982 33.81 46.0139 33.66 45.864C33.51 45.714 33.4258 45.5106 33.4258 45.2985V40.234C33.4258 40.0219 33.51 39.8185 33.66 39.6686C33.81 39.5186 34.0134 39.4343 34.2255 39.4343H39.2915C39.5036 39.4343 39.707 39.5186 39.857 39.6686C40.007 39.8185 40.0912 40.0219 40.0912 40.234V45.2985C40.0912 45.5106 40.007 45.714 39.857 45.864C39.707 46.0139 39.5036 46.0982 39.2915 46.0982ZM35.0268 44.4988H38.4918V41.0337H35.0252L35.0268 44.4988Z" fill="#00AAE7"/>
<path d="M49.7964 25.1726H44.7304C44.5183 25.1726 44.3149 25.0883 44.1649 24.9383C44.0149 24.7884 43.9307 24.5849 43.9307 24.3729V19.3084C43.9307 19.0963 44.0149 18.8929 44.1649 18.7429C44.3149 18.5929 44.5183 18.5087 44.7304 18.5087H49.7948C50.0069 18.5087 50.2103 18.5929 50.3603 18.7429C50.5103 18.8929 50.5945 19.0963 50.5945 19.3084V24.3729C50.5945 24.5847 50.5105 24.7878 50.3609 24.9378C50.2112 25.0877 50.0082 25.1721 49.7964 25.1726ZM45.5317 23.5732H48.9967V20.1081H45.5301L45.5317 23.5732Z" fill="#003E7E"/>
<path d="M49.7964 35.6359H44.7304C44.5183 35.6359 44.3149 35.5516 44.1649 35.4017C44.0149 35.2517 43.9307 35.0483 43.9307 34.8362V29.7709C43.9307 29.5588 44.0149 29.3554 44.1649 29.2054C44.3149 29.0555 44.5183 28.9712 44.7304 28.9712H49.7948C50.0069 28.9712 50.2103 29.0555 50.3603 29.2054C50.5103 29.3554 50.5945 29.5588 50.5945 29.7709V34.8362C50.5945 35.048 50.5105 35.2512 50.3609 35.4011C50.2112 35.551 50.0082 35.6355 49.7964 35.6359ZM45.5317 34.0365H48.9967V30.5706H45.5301L45.5317 34.0365Z" fill="#00AAE7"/>
<path d="M49.7964 46.0982H44.7304C44.5183 46.0982 44.3149 46.0139 44.1649 45.864C44.0149 45.714 43.9307 45.5106 43.9307 45.2985V40.234C43.9307 40.0219 44.0149 39.8185 44.1649 39.6686C44.3149 39.5186 44.5183 39.4343 44.7304 39.4343H49.7948C50.0069 39.4343 50.2103 39.5186 50.3603 39.6686C50.5103 39.8185 50.5945 40.0219 50.5945 40.234V45.2985C50.5945 45.5103 50.5105 45.7135 50.3609 45.8634C50.2112 46.0133 50.0082 46.0978 49.7964 46.0982ZM45.5317 44.4988H48.9967V41.0337H45.5301L45.5317 44.4988Z" fill="#003E7E"/>
</svg>
