<svg width="85" height="85" viewBox="0 0 85 85" fill="none" xmlns="http://www.w3.org/2000/svg">
<path d="M65.8901 50.5962H17.4459C16.7972 50.5962 16.1751 50.3385 15.7164 49.8798C15.2577 49.4211 15 48.799 15 48.1503V43.7233C15 43.4021 15.0633 43.0841 15.1862 42.7873C15.3091 42.4906 15.4893 42.221 15.7164 41.9938C15.9435 41.7667 16.2131 41.5866 16.5099 41.4636C16.8066 41.3407 17.1247 41.2775 17.4459 41.2775H65.8901C66.2113 41.2775 66.5293 41.3407 66.8261 41.4636C67.1228 41.5866 67.3924 41.7667 67.6196 41.9938C67.8467 42.221 68.0268 42.4906 68.1498 42.7873C68.2727 43.0841 68.3359 43.4021 68.3359 43.7233V48.1539C68.335 48.802 68.0769 49.4232 67.6183 49.8811C67.1597 50.339 66.5381 50.5962 65.8901 50.5962V50.5962ZM17.4459 43.0928C17.2777 43.0928 17.1164 43.1596 16.9975 43.2786C16.8786 43.3975 16.8117 43.5588 16.8117 43.7269V48.1576C16.8117 48.3257 16.8786 48.487 16.9975 48.6059C17.1164 48.7249 17.2777 48.7917 17.4459 48.7917H65.8901C66.0583 48.7917 66.2195 48.7249 66.3385 48.6059C66.4574 48.487 66.5242 48.3257 66.5242 48.1576V43.7233C66.5242 43.64 66.5078 43.5576 66.4759 43.4807C66.4441 43.4037 66.3973 43.3338 66.3385 43.2749C66.2796 43.2161 66.2097 43.1693 66.1327 43.1375C66.0558 43.1056 65.9734 43.0892 65.8901 43.0892L17.4459 43.0928Z" fill="#003E7E"/>
<path d="M56.9663 73.223H26.3678C24.9559 73.2205 23.5932 72.7043 22.5339 71.7709C21.4746 70.8374 20.7911 69.5505 20.6109 68.1501L18.205 49.808C18.1882 49.6802 18.1989 49.5502 18.2364 49.4268C18.2739 49.3035 18.3373 49.1895 18.4224 49.0926C18.5074 48.9957 18.6122 48.9181 18.7297 48.8649C18.8472 48.8118 18.9746 48.7843 19.1036 48.7844H64.235C64.364 48.7843 64.4914 48.8118 64.6089 48.8649C64.7264 48.9181 64.8312 48.9957 64.9162 49.0926C65.0013 49.1895 65.0647 49.3035 65.1022 49.4268C65.1397 49.5502 65.1504 49.6802 65.1337 49.808L62.7231 68.1546C62.542 69.5542 61.8581 70.8401 60.7989 71.7726C59.7397 72.7051 58.3775 73.2206 56.9663 73.223V73.223ZM20.1317 50.5961L22.4082 67.9191C22.5312 68.8829 23.001 69.7689 23.7297 70.4116C24.4584 71.0543 25.3962 71.4096 26.3678 71.4113H56.9663C57.9374 71.4097 58.8747 71.0549 59.6033 70.4129C60.3319 69.771 60.802 68.8859 60.9259 67.9227L63.2023 50.5961H20.1317Z" fill="#003E7E"/>
<path d="M65.3839 42.6455C65.2172 42.6454 65.0539 42.5989 64.9124 42.5114C64.7709 42.424 64.6568 42.2989 64.5831 42.1504C64.5093 42.002 64.4789 41.836 64.4951 41.6712C64.5114 41.5064 64.5737 41.3495 64.6751 41.218C65.1218 40.6396 65.362 39.93 65.358 39.2011C65.3578 38.4632 65.1124 37.746 64.6599 37.1608C64.2073 36.5755 63.5729 36.155 62.8551 35.9644C62.733 35.9321 62.6192 35.8744 62.5212 35.7952C62.4232 35.716 62.3433 35.617 62.2866 35.5048C62.2299 35.3927 62.1978 35.2699 62.1924 35.1445C62.187 35.0191 62.2085 34.894 62.2553 34.7775C62.3898 34.456 62.4602 34.1118 62.4627 33.7637C62.4611 33.0814 62.1874 32.4275 61.7016 31.9451C61.2158 31.4627 60.5575 31.1909 59.8704 31.1892C59.7103 31.2217 59.5442 31.2087 59.3911 31.1517C59.2381 31.0947 59.1043 30.996 59.0052 30.867C58.9047 30.7361 58.8426 30.5802 58.8257 30.4165C58.8089 30.2528 58.8379 30.0877 58.9095 29.9393C59.0848 29.5589 59.1745 29.145 59.1723 28.7267C59.1751 28.142 59.0017 27.5699 58.6744 27.0839C58.3471 26.598 57.8809 26.2204 57.3357 25.9997C56.7906 25.7791 56.1914 25.7255 55.6153 25.8459C55.0392 25.9662 54.5126 26.255 54.1031 26.6751C53.938 26.8435 53.7125 26.94 53.4759 26.9435C53.2393 26.947 53.011 26.8572 52.8409 26.6937C52.4398 26.324 51.9247 26.0996 51.3791 26.0569C50.8335 26.0142 50.2893 26.1557 49.8348 26.4585C49.7054 26.5487 49.5542 26.6033 49.3966 26.6165C49.2391 26.6298 49.0808 26.6013 48.9379 26.534C48.7951 26.4666 48.6727 26.3629 48.5834 26.2333C48.4942 26.1037 48.4411 25.9529 48.4296 25.7962C48.3533 24.7555 47.8733 23.7848 47.0907 23.0885C46.3081 22.3922 45.2841 22.0246 44.2341 22.0632C43.1841 22.1017 42.1901 22.5433 41.4614 23.2951C40.7328 24.0469 40.3262 25.0501 40.3274 26.0936C40.3245 26.1558 40.3266 26.2182 40.3337 26.28C40.3677 26.5099 40.3097 26.7438 40.172 26.9316C40.0343 27.1195 39.828 27.2462 39.5973 27.2847C39.3666 27.3231 39.1299 27.2702 38.938 27.1373C38.7462 27.0045 38.6144 26.8022 38.571 26.5739C38.5468 26.415 38.5363 26.2543 38.5397 26.0936C38.5424 24.7014 39.0489 23.3564 39.9669 22.3042C40.8849 21.2519 42.1532 20.5624 43.5404 20.3615C44.9276 20.1605 46.3413 20.4615 47.5237 21.2095C48.7061 21.9575 49.5784 23.1027 49.9814 24.4362C50.5574 24.2681 51.1628 24.2233 51.7576 24.3047C52.3524 24.3861 52.923 24.5919 53.4318 24.9085C54.1394 24.3972 54.9758 24.0906 55.8481 24.0226C56.7205 23.9545 57.5948 24.1278 58.3741 24.5231C59.1533 24.9184 59.8071 25.5204 60.263 26.2622C60.7188 27.004 60.9589 27.8567 60.9565 28.7258C60.957 28.9959 60.9343 29.2656 60.8886 29.5318C61.8455 29.7613 62.6971 30.3034 63.3066 31.0712C63.9161 31.8389 64.2482 32.7878 64.2496 33.7655C64.2498 34.0335 64.2247 34.301 64.1745 34.5644C65.0611 34.9791 65.8107 35.6356 66.3359 36.4574C66.861 37.2791 67.1401 38.2323 67.1404 39.2055C67.1454 40.3249 66.7756 41.4141 66.0892 42.302C66.0057 42.4088 65.8988 42.4953 65.7766 42.5548C65.6544 42.6144 65.5201 42.6454 65.3839 42.6455Z" fill="#003E7E"/>
<path d="M18.6009 42.6922C17.5582 40.3087 17.0815 35.3631 23.5168 34.648C23.2189 33.3074 22.8973 31.0262 25.3046 29.2853C27.248 27.8799 29.4757 28.8384 30.2205 29.2853C30.9415 27.8979 33.6228 22.5351 39.8794 26.5572" stroke="#003E7E" stroke-width="2" stroke-linejoin="round"/>
<path d="M44.5289 17.9793C43.8746 17.9793 43.235 17.7852 42.691 17.4217C42.1469 17.0582 41.7229 16.5415 41.4725 15.937C41.2221 15.3325 41.1566 14.6673 41.2843 14.0256C41.4119 13.3839 41.727 12.7944 42.1897 12.3317C42.6523 11.8691 43.2418 11.554 43.8835 11.4263C44.5253 11.2987 45.1905 11.3642 45.795 11.6146C46.3995 11.865 46.9161 12.289 47.2797 12.833C47.6432 13.3771 47.8372 14.0167 47.8372 14.671C47.8362 15.5481 47.4874 16.389 46.8672 17.0092C46.247 17.6294 45.4061 17.9783 44.5289 17.9793V17.9793ZM44.5289 13.1781C44.233 13.1781 43.9436 13.2659 43.6975 13.4303C43.4514 13.5948 43.2596 13.8285 43.1464 14.1019C43.0331 14.3754 43.0035 14.6763 43.0612 14.9666C43.1189 15.2569 43.2615 15.5235 43.4708 15.7328C43.6801 15.9421 43.9467 16.0846 44.237 16.1424C44.5273 16.2001 44.8282 16.1705 45.1016 16.0572C45.3751 15.944 45.6088 15.7521 45.7732 15.506C45.9377 15.2599 46.0254 14.9706 46.0254 14.6746C46.0257 14.4779 45.9872 14.283 45.9121 14.1011C45.837 13.9192 45.7268 13.7539 45.5879 13.6146C45.4489 13.4753 45.2839 13.3648 45.1022 13.2893C44.9205 13.2137 44.7257 13.1747 44.5289 13.1745V13.1781Z" fill="#00AAE7"/>
<path d="M54.2111 23.0437C53.4095 23.0437 52.6259 22.806 51.9594 22.3606C51.2929 21.9153 50.7735 21.2823 50.4667 20.5418C50.16 19.8012 50.0797 18.9863 50.2361 18.2001C50.3925 17.4139 50.7785 16.6918 51.3453 16.125C51.9121 15.5582 52.6342 15.1722 53.4204 15.0158C54.2066 14.8594 55.0215 14.9397 55.762 15.2464C56.5026 15.5532 57.1356 16.0727 57.5809 16.7391C58.0263 17.4056 58.264 18.1892 58.264 18.9908C58.2625 20.0652 57.835 21.0953 57.0753 21.855C56.3156 22.6148 55.2855 23.0422 54.2111 23.0437ZM54.2111 16.7497C53.7678 16.7497 53.3345 16.8811 52.966 17.1274C52.5974 17.3736 52.3102 17.7236 52.1405 18.1332C51.9709 18.5427 51.9265 18.9933 52.013 19.428C52.0995 19.8628 52.3129 20.2621 52.6264 20.5755C52.9398 20.8889 53.3391 21.1024 53.7739 21.1889C54.2086 21.2753 54.6592 21.231 55.0687 21.0613C55.4782 20.8917 55.8282 20.6045 56.0745 20.2359C56.3208 19.8674 56.4522 19.4341 56.4522 18.9908C56.4515 18.3966 56.2151 17.827 55.795 17.4069C55.3749 16.9867 54.8052 16.7504 54.2111 16.7497Z" fill="#00AAE7"/>
<path d="M50.1552 11.3573C49.6254 11.3573 49.1075 11.2002 48.667 10.9059C48.2265 10.6116 47.8832 10.1932 47.6805 9.70374C47.4777 9.21428 47.4247 8.67569 47.528 8.15608C47.6314 7.63647 47.8865 7.15918 48.2611 6.78456C48.6357 6.40995 49.113 6.15483 49.6326 6.05147C50.1523 5.94811 50.6908 6.00116 51.1803 6.2039C51.6698 6.40664 52.0881 6.74998 52.3825 7.19048C52.6768 7.63098 52.8339 8.14888 52.8339 8.67867C52.8332 9.38887 52.5507 10.0698 52.0485 10.572C51.5463 11.0742 50.8654 11.3566 50.1552 11.3573V11.3573ZM50.1552 7.81175C49.9838 7.81175 49.8162 7.86259 49.6736 7.95785C49.531 8.05311 49.4199 8.1885 49.3543 8.34691C49.2887 8.50532 49.2715 8.67963 49.305 8.84779C49.3384 9.01596 49.421 9.17043 49.5422 9.29167C49.6635 9.41291 49.8179 9.49548 49.9861 9.52893C50.1543 9.56238 50.3286 9.54521 50.487 9.47959C50.6454 9.41398 50.7808 9.30286 50.876 9.1603C50.9713 9.01774 51.0222 8.85013 51.0222 8.67867C51.0219 8.44882 50.9305 8.22845 50.768 8.06593C50.6054 7.9034 50.3851 7.81199 50.1552 7.81175Z" fill="#00AAE7"/>
</svg>

