<svg width="85" height="85" viewBox="0 0 85 85" fill="none" xmlns="http://www.w3.org/2000/svg">
<path d="M38.7268 59.3695C35.0202 55.8111 19.0031 45.1359 15 42.0223C23.0064 34.9055 21.2272 36.6847 26.5648 28.6784C29.3989 24.4271 33.2999 17.9142 34.7233 14C39.9126 19.6341 51.4736 30.4576 67.4864 33.1264C67.4864 33.1264 68.439 35.9731 62.7456 42.0223" stroke="#00AAE7" stroke-width="2" stroke-linejoin="round"/>
<path d="M58.385 48.7722C58.1923 48.772 58.0048 48.7101 57.8498 48.5956C57.6948 48.481 57.5807 48.3198 57.524 48.1356L55.5612 41.7558C55.5231 41.6418 55.5081 41.5212 55.5173 41.4014C55.5264 41.2815 55.5594 41.1646 55.6144 41.0577C55.6694 40.9508 55.7452 40.8559 55.8373 40.7787C55.9295 40.7015 56.0362 40.6435 56.1511 40.6081C56.266 40.5728 56.3869 40.5608 56.5065 40.5728C56.6261 40.5848 56.7421 40.6207 56.8477 40.6782C56.9533 40.7357 57.0463 40.8138 57.1212 40.9078C57.1962 41.0018 57.2516 41.1099 57.2842 41.2256L59.2515 47.6055C59.293 47.7404 59.3022 47.8831 59.2785 48.0222C59.2548 48.1613 59.1987 48.2928 59.1149 48.4063C59.0311 48.5198 58.9217 48.612 58.7958 48.6756C58.6698 48.7391 58.5306 48.7722 58.3895 48.7722H58.385Z" fill="#003E7E"/>
<path d="M53.0298 48.8741C52.837 48.8738 52.6493 48.8118 52.4944 48.6971C52.3394 48.5824 52.2253 48.421 52.1688 48.2366L49.8345 40.6513C49.7707 40.4247 49.7981 40.1822 49.9107 39.9756C50.0233 39.7689 50.2123 39.6145 50.4372 39.5453C50.6622 39.4761 50.9053 39.4976 51.1146 39.6052C51.3239 39.7128 51.4829 39.8979 51.5575 40.1211L53.8918 47.7074C53.9333 47.8422 53.9425 47.985 53.9188 48.124C53.8951 48.2631 53.839 48.3947 53.7552 48.5082C53.6714 48.6217 53.562 48.7139 53.4361 48.7775C53.3101 48.841 53.1709 48.8741 53.0298 48.8741V48.8741Z" fill="#003E7E"/>
<path d="M48.5353 51.8024C48.3426 51.8023 48.155 51.7404 48.0001 51.6258C47.8451 51.5113 47.7309 51.3501 47.6743 51.1659L44.9054 42.1668C44.8666 42.0526 44.8511 41.9317 44.8598 41.8114C44.8685 41.6911 44.9013 41.5737 44.9562 41.4663C45.0112 41.3589 45.0871 41.2635 45.1795 41.186C45.2719 41.1084 45.379 41.0502 45.4943 41.0148C45.6096 40.9794 45.7309 40.9675 45.8509 40.9797C45.9709 40.992 46.0873 41.0283 46.193 41.0864C46.2988 41.1444 46.3918 41.2232 46.4666 41.3178C46.5414 41.4125 46.5964 41.5212 46.6284 41.6376L49.3973 50.6358C49.4387 50.7706 49.448 50.9133 49.4243 51.0524C49.4005 51.1915 49.3445 51.3231 49.2607 51.4366C49.1768 51.5501 49.0675 51.6423 48.9415 51.7058C48.8155 51.7694 48.6764 51.8025 48.5353 51.8024V51.8024Z" fill="#003E7E"/>
<path d="M51.1022 72.6894C50.489 72.6879 49.892 72.4927 49.3962 72.1318C48.9005 71.771 48.5314 71.2628 48.3415 70.6797L47.1522 66.9912C46.9344 66.2682 46.4951 65.6318 45.8963 65.1717L37.3146 59.4104C36.5418 58.9184 35.994 58.1417 35.7898 57.2486C35.5856 56.3555 35.7415 55.418 36.2237 54.639C36.7073 53.8659 37.474 53.3125 38.3601 53.0969C39.2462 52.8812 40.1814 53.0205 40.9662 53.4849L43.3285 54.5669L39.9789 43.6762C39.8027 43.0989 39.7796 42.4858 39.9118 41.8968C40.0441 41.3079 40.3272 40.7635 40.7334 40.3171C41.1396 39.8706 41.6549 39.5374 42.2287 39.3502C42.8025 39.163 43.4151 39.1282 44.0065 39.2493L43.7017 38.2575C43.4303 37.376 43.5202 36.4227 43.9516 35.6075C44.3831 34.7922 45.1207 34.1817 46.0022 33.9103C46.8837 33.6389 47.837 33.7288 48.6522 34.1603C49.4675 34.5917 50.078 35.3293 50.3494 36.2108L50.6559 37.2026C51.0585 36.7866 51.5587 36.4778 52.1109 36.3041C52.6631 36.1304 53.25 36.0973 53.8183 36.2079C54.3865 36.3185 54.9182 36.5693 55.3649 36.9374C55.8117 37.3056 56.1595 37.7795 56.3767 38.3161C56.7959 37.8793 57.3219 37.5596 57.9026 37.3886C58.4834 37.2176 59.0987 37.2012 59.6877 37.3411C60.2767 37.4811 60.819 37.7724 61.2608 38.1863C61.7026 38.6002 62.0286 39.1223 62.2066 39.701L68.0184 58.5926C68.3103 59.5418 68.5031 60.5186 68.5936 61.5076L68.9074 64.9337C68.9656 65.5948 68.7958 66.256 68.4263 66.8072C68.0568 67.3585 67.5097 67.7667 66.876 67.9641L51.9452 72.5623C51.6721 72.6462 51.388 72.689 51.1022 72.6894ZM39.1882 54.8004C38.9015 54.8 38.6195 54.8726 38.3685 55.0112C38.1176 55.1499 37.906 55.35 37.7537 55.5929C37.5225 55.9706 37.4496 56.4244 37.5509 56.8555C37.6522 57.2867 37.9195 57.6604 38.2947 57.8957L46.9503 63.7084C47.8648 64.3965 48.5383 65.3562 48.8743 66.4502L50.0545 70.1279C50.1434 70.4005 50.3355 70.6274 50.5896 70.76C50.8438 70.8927 51.1398 70.9205 51.4142 70.8375L66.345 66.2393C66.5839 66.1649 66.7902 66.011 66.9296 65.8032C67.069 65.5954 67.1332 65.3462 67.1114 65.0969L66.7976 61.6707C66.7177 60.8057 66.5488 59.9513 66.2936 59.121L60.4836 40.2311C60.3526 39.8079 60.0592 39.4538 59.6675 39.2466C59.2759 39.0394 58.8181 38.9959 58.3945 39.1258C57.9691 39.2565 57.6129 39.5509 57.4045 39.9442C57.196 40.3374 57.1523 40.7974 57.2828 41.2229C57.3209 41.3369 57.3359 41.4575 57.3267 41.5773C57.3176 41.6972 57.2846 41.8141 57.2296 41.921C57.1746 42.0279 57.0988 42.1228 57.0067 42.2C56.9145 42.2772 56.8078 42.3352 56.6929 42.3706C56.578 42.4059 56.4571 42.4179 56.3375 42.4059C56.2179 42.3939 56.1018 42.358 55.9963 42.3005C55.8907 42.243 55.7977 42.1649 55.7227 42.0709C55.6478 41.9769 55.5924 41.8688 55.5598 41.7531V41.7477L54.7538 39.1267C54.6228 38.7034 54.3294 38.3493 53.9378 38.1421C53.5461 37.9349 53.0883 37.8914 52.6647 38.0213C52.2394 38.1522 51.8835 38.4467 51.6753 38.8399C51.467 39.2332 51.4233 39.693 51.5539 40.1184C51.6177 40.345 51.5903 40.5875 51.4777 40.7941C51.3651 41.0008 51.1761 41.1552 50.9512 41.2244C50.7262 41.2937 50.4831 41.2722 50.2738 41.1646C50.0645 41.057 49.9056 40.8718 49.8309 40.6486L48.6264 36.7419C48.4956 36.3174 48.2015 35.9623 47.8089 35.7547C47.4163 35.547 46.9573 35.5039 46.5328 35.6347C46.1084 35.7655 45.7533 36.0595 45.5456 36.4522C45.338 36.8448 45.2948 37.3038 45.4256 37.7282L46.6284 41.6332V41.6386C46.6906 41.8647 46.6622 42.1061 46.5493 42.3117C46.4365 42.5172 46.2479 42.6707 46.0238 42.7395C45.7996 42.8084 45.5574 42.7872 45.3486 42.6805C45.1398 42.5737 44.9808 42.3898 44.9054 42.1678C44.7757 41.7431 44.4825 41.3874 44.0905 41.1788C43.6985 40.9702 43.2397 40.9259 42.815 41.0557C42.3903 41.1854 42.0345 41.4785 41.826 41.8705C41.6174 42.2626 41.5731 42.7214 41.7028 43.1461L45.6429 55.9491C45.6931 56.115 45.6944 56.2919 45.6467 56.4585C45.599 56.6252 45.5042 56.7745 45.3738 56.8887C45.2433 57.0029 45.0827 57.077 44.9112 57.1022C44.7397 57.1275 44.5646 57.1028 44.4068 57.031L40.1692 55.0997C40.1349 55.0835 40.1015 55.0654 40.0691 55.0456C39.804 54.8835 39.4989 54.7986 39.1882 54.8004Z" fill="#003E7E"/>
</svg>
