<svg width="85" height="85" viewBox="0 0 85 85" fill="none" xmlns="http://www.w3.org/2000/svg">
<path d="M34.619 38.4154H28.0735C27.6174 38.4149 27.1802 38.2336 26.8578 37.9112C26.5353 37.5887 26.354 37.1515 26.3535 36.6956V30.1506C26.354 29.6946 26.5353 29.2574 26.8578 28.935C27.1802 28.6125 27.6174 28.4312 28.0735 28.4308H34.619C35.0749 28.4314 35.5119 28.6129 35.8342 28.9353C36.1564 29.2577 36.3377 29.6947 36.3381 30.1506V36.6956C36.3377 37.1514 36.1564 37.5884 35.8342 37.9108C35.5119 38.2333 35.0749 38.4147 34.619 38.4154ZM28.0735 30.1403L28.0632 30.1506V36.6956L34.619 36.7058L34.6284 30.1506L28.0735 30.1403Z" fill="#003E7E"/>
<path d="M34.619 52.0308H28.0735C27.6175 52.0305 27.1803 51.8494 26.8578 51.527C26.5353 51.2047 26.354 50.7676 26.3535 50.3117V43.7652C26.354 43.3093 26.5353 42.8722 26.8578 42.5499C27.1803 42.2275 27.6175 42.0464 28.0735 42.0461H34.619C35.0748 42.0466 35.5118 42.2279 35.8341 42.5502C36.1564 42.8724 36.3377 43.3094 36.3381 43.7652V50.3117C36.3377 50.7675 36.1564 51.2045 35.8341 51.5267C35.5118 51.849 35.0748 52.0303 34.619 52.0308V52.0308ZM28.0735 43.7558L28.0632 43.7652V50.3117L34.619 50.3211L34.6284 43.7652L28.0735 43.7558Z" fill="#00AAE7"/>
<path d="M34.619 64.7385H28.0735C27.6174 64.738 27.1802 64.5732 26.8578 64.2801C26.5353 63.987 26.354 63.5895 26.3535 63.175V57.225C26.354 56.8105 26.5353 56.413 26.8578 56.1199C27.1802 55.8268 27.6174 55.6619 28.0735 55.6615H34.619C35.0749 55.6621 35.5119 55.8271 35.8342 56.1202C36.1564 56.4133 36.3377 56.8106 36.3381 57.225V63.175C36.3377 63.5894 36.1564 63.9867 35.8342 64.2798C35.5119 64.5729 35.0749 64.7378 34.619 64.7385V64.7385ZM28.0735 57.2157L28.0632 57.225V63.175L34.619 63.1843L34.6284 57.225L28.0735 57.2157Z" fill="#00AAE7"/>
<path d="M55.5362 58.3846H41.6485C41.4439 58.3846 41.2476 58.289 41.1029 58.1187C40.9582 57.9485 40.877 57.7176 40.877 57.4769C40.877 57.2362 40.9582 57.0053 41.1029 56.8351C41.2476 56.6648 41.4439 56.5692 41.6485 56.5692H55.5362C55.7408 56.5692 55.9371 56.6648 56.0817 56.8351C56.2264 57.0053 56.3077 57.2362 56.3077 57.4769C56.3077 57.7176 56.2264 57.9485 56.0817 58.1187C55.9371 58.289 55.7408 58.3846 55.5362 58.3846Z" fill="#003E7E"/>
<path d="M51.9164 63.4686H41.7969C41.5529 63.4686 41.3189 63.3717 41.1464 63.1992C40.9739 63.0266 40.877 62.7926 40.877 62.5487C40.877 62.3047 40.9739 62.0707 41.1464 61.8981C41.3189 61.7256 41.5529 61.6287 41.7969 61.6287H51.9164C52.1604 61.6287 52.3944 61.7256 52.567 61.8981C52.7395 62.0707 52.8364 62.3047 52.8364 62.5487C52.8364 62.7926 52.7395 63.0266 52.567 63.1992C52.3944 63.3717 52.1604 63.4686 51.9164 63.4686Z" fill="#003E7E"/>
<path d="M55.5362 45.6769H41.6485C41.4439 45.6769 41.2476 45.5813 41.1029 45.4111C40.9582 45.2408 40.877 45.01 40.877 44.7692C40.877 44.5285 40.9582 44.2976 41.1029 44.1274C41.2476 43.9572 41.4439 43.8615 41.6485 43.8615H55.5362C55.7408 43.8615 55.9371 43.9572 56.0817 44.1274C56.2264 44.2976 56.3077 44.5285 56.3077 44.7692C56.3077 45.01 56.2264 45.2408 56.0817 45.4111C55.9371 45.5813 55.7408 45.6769 55.5362 45.6769Z" fill="#003E7E"/>
<path d="M51.9164 50.7609H41.7969C41.5529 50.7609 41.3189 50.664 41.1464 50.4915C40.9739 50.3189 40.877 50.0849 40.877 49.841C40.877 49.597 40.9739 49.363 41.1464 49.1904C41.3189 49.0179 41.5529 48.921 41.7969 48.921H51.9164C52.1604 48.921 52.3944 49.0179 52.567 49.1904C52.7395 49.363 52.8364 49.597 52.8364 49.841C52.8364 50.0849 52.7395 50.3189 52.567 50.4915C52.3944 50.664 52.1604 50.7609 51.9164 50.7609Z" fill="#003E7E"/>
<path d="M55.5362 32.0615H41.6485C41.4439 32.0615 41.2476 31.9659 41.1029 31.7957C40.9582 31.6255 40.877 31.3946 40.877 31.1538C40.877 30.9131 40.9582 30.6822 41.1029 30.512C41.2476 30.3418 41.4439 30.2462 41.6485 30.2462H55.5362C55.7408 30.2462 55.9371 30.3418 56.0817 30.512C56.2264 30.6822 56.3077 30.9131 56.3077 31.1538C56.3077 31.3946 56.2264 31.6255 56.0817 31.7957C55.9371 31.9659 55.7408 32.0615 55.5362 32.0615Z" fill="#003E7E"/>
<path d="M51.9164 37.1455H41.7969C41.5529 37.1455 41.3189 37.0486 41.1464 36.8761C40.9739 36.7035 40.877 36.4696 40.877 36.2256C40.877 35.9816 40.9739 35.7476 41.1464 35.5751C41.3189 35.4025 41.5529 35.3056 41.7969 35.3056H51.9164C52.1604 35.3056 52.3944 35.4025 52.567 35.5751C52.7395 35.7476 52.8364 35.9816 52.8364 36.2256C52.8364 36.4696 52.7395 36.7035 52.567 36.8761C52.3944 37.0486 52.1604 37.1455 51.9164 37.1455Z" fill="#003E7E"/>
<rect x="21" y="18.5385" width="42.4769" height="52.4615" rx="1" stroke="#003E7E" stroke-width="2"/>
<path d="M41.7844 13C39.2428 13 38.0023 14.8154 37.6998 15.7231H29.9844V22.0769H53.5844V15.7231H45.4151C45.2639 14.8154 44.3259 13 41.7844 13Z" fill="white" stroke="#003E7E" stroke-width="2" stroke-linejoin="round"/>
</svg>

