<svg width="85" height="85" viewBox="0 0 85 85" fill="none" xmlns="http://www.w3.org/2000/svg">
<path d="M60.952 57C60.7522 57 60.5575 56.9375 60.3954 56.8213C60.2333 56.7052 60.112 56.5412 60.0489 56.3528C59.9857 56.1643 59.9837 55.9608 60.0433 55.7712C60.1029 55.5816 60.221 55.4154 60.3808 55.2962L72.3867 46.3351C73.6959 45.3991 74.6146 44.0183 74.9685 42.4542C75.0119 42.2631 75.0437 42.0697 75.0638 41.8749C75.1884 40.6789 74.9679 39.4723 74.4281 38.3963C73.8883 37.3203 73.0514 36.4195 72.0154 35.7992C70.9794 35.1788 69.7872 34.8647 68.5782 34.8935C67.3692 34.9222 66.1934 35.2928 65.1885 35.9617C65.0845 36.0332 64.9673 36.0834 64.8436 36.1094C64.7199 36.1354 64.5923 36.1367 64.4681 36.1131C64.3439 36.0895 64.2257 36.0415 64.1204 35.972C64.015 35.9025 63.9247 35.8129 63.8545 35.7083C63.7844 35.6037 63.736 35.4862 63.712 35.3628C63.688 35.2394 63.689 35.1125 63.7149 34.9895C63.7408 34.8664 63.7911 34.7498 63.8628 34.6462C63.9345 34.5427 64.0263 34.4545 64.1327 34.3866C65.44 33.5178 66.9693 33.0376 68.5413 33.0021C70.1134 32.9667 71.663 33.3775 73.0086 34.1865C74.3542 34.9954 75.4399 36.169 76.1386 37.5696C76.8373 38.9702 77.12 40.5398 76.9535 42.0945C76.9268 42.3512 76.8855 42.6063 76.8297 42.8583C76.38 44.8655 75.2073 46.6397 73.5329 47.8467L61.5223 56.8107C61.3579 56.9337 61.1577 57.0002 60.952 57Z" fill="#00AAE7"/>
<path d="M39.9995 66C33.3716 65.9927 27.0175 65.531 22.3309 61.1549C17.6443 56.7789 15.0079 50.8458 15 44.6571V29.9242C15 29.6791 15.1043 29.444 15.2899 29.2707C15.4755 29.0974 15.7273 29 15.9898 29H64.0102C64.2727 29 64.5245 29.0974 64.7101 29.2707C64.8957 29.444 65 29.6791 65 29.9242V44.6571C64.9921 50.8459 62.3556 56.7792 57.6688 61.1553C52.982 65.5313 46.6275 65.9929 39.9995 66ZM16.9796 30.8466V44.6571C17.0195 50.3335 19.4624 55.7647 23.7752 59.7655C28.0881 63.7662 33.9201 64 39.9995 64C46.0789 64 51.9119 63.7662 56.2248 59.7655C60.5376 55.7647 62.9805 50.3335 63.0204 44.6571V30.8484L16.9796 30.8466Z" fill="#003E7E"/>
</svg>

