<svg width="85" height="85" viewBox="0 0 85 85" fill="none" xmlns="http://www.w3.org/2000/svg">
<path d="M57.8069 11.4381C50.3149 20.9194 46.1885 33.2531 46.1885 46.1657V47.2846C46.1885 48.2648 46.983 49.0593 47.9632 49.0593V49.0593C48.9433 49.0593 49.7379 49.8539 49.7379 50.834V70.1516C49.7379 73.376 51.9801 75.9987 54.7359 75.9987C57.4918 75.9987 59.7334 73.376 59.7334 70.1516V12.1074C59.7334 11.0836 58.4416 10.6348 57.8069 11.4381V11.4381ZM57.5118 70.1516C57.5118 71.9424 56.2665 73.3995 54.7358 73.3995C53.2047 73.3995 51.9593 71.9425 51.9593 70.1516V48.2348C51.9593 47.2547 51.1648 46.4601 50.1846 46.4601H48.7044C48.5418 46.4601 48.4099 46.3283 48.4099 46.1657V46.1657C48.4099 37.2497 52.6317 23.867 55.6186 18.3119C56.3152 17.0165 57.5117 17.5193 57.5117 18.9901L57.5118 70.1516Z" fill="#003E7E"/>
<path d="M39.8485 12.5733C39.2273 12.5733 38.7237 13.0769 38.7237 13.6981V30.8167C38.7237 33.7146 37.499 36.4489 35.4483 38.1302V38.1302C35.1493 38.375 34.9759 38.741 34.9759 39.1275V70.546C34.9759 72.1254 33.8594 73.411 32.4864 73.411C31.114 73.411 29.9974 72.1254 29.9974 70.546V39.1275C29.9974 38.741 29.8241 38.375 29.5251 38.1302V38.1302C27.4743 36.449 26.2496 33.7146 26.2496 30.8167V13.6981C26.2496 13.0769 25.746 12.5733 25.1248 12.5733V12.5733C24.5036 12.5733 24 13.0769 24 13.6981V30.8167C24 34.0053 25.1506 37.0401 27.1328 39.2072C27.5085 39.618 27.7478 40.143 27.7478 40.6998V70.546C27.7478 73.5533 29.8733 76 32.4864 76C35.0995 76 37.2255 73.5533 37.2255 70.546V40.6998C37.2255 40.1431 37.4648 39.618 37.8406 39.2072C39.8227 37.0402 40.9733 34.0054 40.9733 30.8167V13.6981C40.9733 13.0769 40.4697 12.5733 39.8485 12.5733V12.5733Z" fill="#003E7E"/>
<path d="M36.1473 31.872V13.4294C36.1473 12.8159 35.65 12.3186 35.0366 12.3186C34.4231 12.3186 33.9258 12.8159 33.9258 13.4294V31.872C33.9258 32.4854 34.4231 32.9827 35.0366 32.9827C35.65 32.9827 36.1473 32.4854 36.1473 31.872Z" fill="#00AAE7"/>
<path d="M31.2675 31.872V13.4294C31.2675 12.8159 30.7701 12.3186 30.1567 12.3186C29.5432 12.3186 29.0459 12.8159 29.0459 13.4294V31.872C29.0459 32.4854 29.5432 32.9827 30.1567 32.9827C30.7701 32.9827 31.2675 32.4854 31.2675 31.872Z" fill="#00AAE7"/>
</svg>

