<svg width="85" height="85" viewBox="0 0 85 85" fill="none" xmlns="http://www.w3.org/2000/svg">
<path d="M69.6826 70.2455H14.8039C14.5907 70.2455 14.3862 70.1608 14.2355 70.01C14.0847 69.8592 14 69.6548 14 69.4415C14 69.2283 14.0847 69.0238 14.2355 68.8731C14.3862 68.7223 14.5907 68.6376 14.8039 68.6376H69.6826C69.8958 68.6376 70.1003 68.7223 70.251 68.8731C70.4018 69.0238 70.4865 69.2283 70.4865 69.4415C70.4865 69.6548 70.4018 69.8592 70.251 70.01C70.1003 70.1608 69.8958 70.2455 69.6826 70.2455Z" fill="#003E7E"/>
<path d="M53.3906 29.3473H30.9861C30.7712 29.3473 30.5651 29.2695 30.4131 29.131C30.2612 28.9924 30.1758 28.8046 30.1758 28.6087V16.7386C30.1758 16.5427 30.2612 16.3548 30.4131 16.2163C30.5651 16.0778 30.7712 16 30.9861 16H53.3906C53.6055 16 53.8116 16.0778 53.9636 16.2163C54.1155 16.3548 54.2009 16.5427 54.2009 16.7386V28.6087C54.2009 28.8046 54.1155 28.9924 53.9636 29.131C53.8116 29.2695 53.6055 29.3473 53.3906 29.3473ZM31.7964 27.8701H52.5803V17.4772H31.7964V27.8701Z" fill="#003E7E"/>
<path d="M42.3557 26.2473C42.1425 26.2473 41.938 26.1626 41.7872 26.0118C41.6365 25.8611 41.5518 25.6566 41.5518 25.4434V19.4734C41.5518 19.2602 41.6365 19.0557 41.7872 18.9049C41.938 18.7542 42.1425 18.6695 42.3557 18.6695C42.5689 18.6695 42.7734 18.7542 42.9242 18.9049C43.0749 19.0557 43.1596 19.2602 43.1596 19.4734V25.4466C43.1588 25.6592 43.0737 25.8629 42.923 26.013C42.7723 26.163 42.5683 26.2473 42.3557 26.2473Z" fill="#00AAE7"/>
<path d="M45.3434 23.2607H39.3694C39.1561 23.2607 38.9517 23.176 38.8009 23.0252C38.6501 22.8745 38.5654 22.67 38.5654 22.4568C38.5654 22.2436 38.6501 22.0391 38.8009 21.8883C38.9517 21.7375 39.1561 21.6528 39.3694 21.6528H45.3434C45.5566 21.6528 45.7611 21.7375 45.9118 21.8883C46.0626 22.0391 46.1473 22.2436 46.1473 22.4568C46.1473 22.67 46.0626 22.8745 45.9118 23.0252C45.7611 23.176 45.5566 23.2607 45.3434 23.2607Z" fill="#00AAE7"/>
<path d="M58.823 40.1681H52.7131C52.4999 40.1681 52.2954 40.0834 52.1446 39.9326C51.9939 39.7818 51.9092 39.5773 51.9092 39.3641V33.2494C51.9092 33.0362 51.9939 32.8317 52.1446 32.681C52.2954 32.5302 52.4999 32.4455 52.7131 32.4455H58.823C59.0362 32.4455 59.2407 32.5302 59.3914 32.681C59.5422 32.8317 59.6269 33.0362 59.6269 33.2494V39.3593C59.6275 39.4653 59.6072 39.5703 59.5671 39.6684C59.527 39.7665 59.4679 39.8557 59.3932 39.9309C59.3184 40.0061 59.2296 40.0657 59.1317 40.1064C59.0339 40.1471 58.929 40.1681 58.823 40.1681ZM53.517 38.5602H58.019V34.0534H53.517V38.5602Z" fill="#003E7E"/>
<path d="M45.4861 40.1681H39.3762C39.163 40.1681 38.9585 40.0834 38.8077 39.9326C38.657 39.7818 38.5723 39.5773 38.5723 39.3641V33.2494C38.5723 33.0362 38.657 32.8317 38.8077 32.681C38.9585 32.5302 39.163 32.4455 39.3762 32.4455H45.4861C45.6993 32.4455 45.9038 32.5302 46.0545 32.681C46.2053 32.8317 46.29 33.0362 46.29 33.2494V39.3593C46.2906 39.4653 46.2703 39.5703 46.2302 39.6684C46.1901 39.7665 46.131 39.8557 46.0562 39.9309C45.9815 40.0061 45.8927 40.0657 45.7948 40.1064C45.697 40.1471 45.592 40.1681 45.4861 40.1681ZM40.1801 38.5602H44.6821V34.0534H40.1801V38.5602Z" fill="#003E7E"/>
<path d="M32.1491 40.1681H26.0393C25.8261 40.1681 25.6216 40.0834 25.4708 39.9326C25.3201 39.7818 25.2354 39.5773 25.2354 39.3641V33.2494C25.2354 33.0362 25.3201 32.8317 25.4708 32.681C25.6216 32.5302 25.8261 32.4455 26.0393 32.4455H32.1491C32.3624 32.4455 32.5668 32.5302 32.7176 32.681C32.8684 32.8317 32.9531 33.0362 32.9531 33.2494V39.3593C32.9537 39.4653 32.9334 39.5703 32.8933 39.6684C32.8531 39.7665 32.794 39.8557 32.7193 39.9309C32.6446 40.0061 32.5558 40.0657 32.4579 40.1064C32.3601 40.1471 32.2551 40.1681 32.1491 40.1681V40.1681ZM26.8432 38.5602H31.3452V34.0534H26.8432V38.5602Z" fill="#003E7E"/>
<path d="M58.823 51.2816H52.7131C52.4999 51.2816 52.2954 51.1969 52.1446 51.0461C51.9939 50.8954 51.9092 50.6909 51.9092 50.4777V44.3678C51.9092 44.1546 51.9939 43.9501 52.1446 43.7993C52.2954 43.6486 52.4999 43.5639 52.7131 43.5639H58.823C59.0362 43.5639 59.2407 43.6486 59.3914 43.7993C59.5422 43.9501 59.6269 44.1546 59.6269 44.3678V50.4777C59.6269 50.6909 59.5422 50.8954 59.3914 51.0461C59.2407 51.1969 59.0362 51.2816 58.823 51.2816ZM53.517 49.6737H58.019V45.1717H53.517V49.6737Z" fill="#003E7E"/>
<path d="M45.4861 51.2816H39.3762C39.163 51.2816 38.9585 51.1969 38.8077 51.0461C38.657 50.8954 38.5723 50.6909 38.5723 50.4777V44.3678C38.5723 44.1546 38.657 43.9501 38.8077 43.7993C38.9585 43.6486 39.163 43.5639 39.3762 43.5639H45.4861C45.6993 43.5639 45.9038 43.6486 46.0545 43.7993C46.2053 43.9501 46.29 44.1546 46.29 44.3678V50.4777C46.29 50.6909 46.2053 50.8954 46.0545 51.0461C45.9038 51.1969 45.6993 51.2816 45.4861 51.2816ZM40.1801 49.6737H44.6821V45.1717H40.1801V49.6737Z" fill="#003E7E"/>
<path d="M32.1491 51.2816H26.0393C25.8261 51.2816 25.6216 51.1969 25.4708 51.0461C25.3201 50.8954 25.2354 50.6909 25.2354 50.4777V44.3678C25.2354 44.1546 25.3201 43.9501 25.4708 43.7993C25.6216 43.6486 25.8261 43.5639 26.0393 43.5639H32.1491C32.3624 43.5639 32.5668 43.6486 32.7176 43.7993C32.8684 43.9501 32.9531 44.1546 32.9531 44.3678V50.4777C32.9531 50.6909 32.8684 50.8954 32.7176 51.0461C32.5668 51.1969 32.3624 51.2816 32.1491 51.2816V51.2816ZM26.8432 49.6737H31.3452V45.1717H26.8432V49.6737Z" fill="#003E7E"/>
<path d="M58.823 62.3959H52.7131C52.4999 62.3959 52.2954 62.3112 52.1446 62.1604C51.9939 62.0097 51.9092 61.8052 51.9092 61.592V55.4821C51.9092 55.2689 51.9939 55.0644 52.1446 54.9136C52.2954 54.7629 52.4999 54.6782 52.7131 54.6782H58.823C59.0362 54.6782 59.2407 54.7629 59.3914 54.9136C59.5422 55.0644 59.6269 55.2689 59.6269 55.4821V61.592C59.6269 61.8052 59.5422 62.0097 59.3914 62.1604C59.2407 62.3112 59.0362 62.3959 58.823 62.3959ZM53.517 60.788H58.019V56.286H53.517V60.788Z" fill="#003E7E"/>
<path d="M32.1491 62.3959H26.0393C25.8261 62.3959 25.6216 62.3112 25.4708 62.1604C25.3201 62.0097 25.2354 61.8052 25.2354 61.592V55.4821C25.2354 55.2689 25.3201 55.0644 25.4708 54.9136C25.6216 54.7629 25.8261 54.6782 26.0393 54.6782H32.1491C32.3624 54.6782 32.5668 54.7629 32.7176 54.9136C32.8684 55.0644 32.9531 55.2689 32.9531 55.4821V61.592C32.9531 61.8052 32.8684 62.0097 32.7176 62.1604C32.5668 62.3112 32.3624 62.3959 32.1491 62.3959V62.3959ZM26.8432 60.788H31.3452V56.286H26.8432V60.788Z" fill="#003E7E"/>
<path d="M48.0563 70.2455H36.4299C36.2167 70.2455 36.0122 70.1608 35.8614 70.01C35.7107 69.8592 35.626 69.6547 35.626 69.4415V55.4379C35.6266 54.9286 35.8293 54.4403 36.1895 54.0802C36.5497 53.7202 37.0381 53.5177 37.5474 53.5173H46.9397C47.4489 53.5177 47.9372 53.7202 48.2973 54.0803C48.6574 54.4404 48.8598 54.9286 48.8603 55.4379V69.4415C48.8603 69.6547 48.7756 69.8592 48.6248 70.01C48.474 70.1608 48.2696 70.2455 48.0563 70.2455V70.2455ZM37.2371 68.6376H47.2524V55.4379C47.2524 55.3968 47.2443 55.3562 47.2286 55.3182C47.2129 55.2803 47.1899 55.2458 47.1608 55.2168C47.1318 55.1877 47.0973 55.1647 47.0594 55.149C47.0214 55.1332 46.9807 55.1252 46.9397 55.1252H37.5506C37.4676 55.1252 37.3879 55.1581 37.3292 55.2167C37.2704 55.2753 37.2373 55.3549 37.2371 55.4379V68.6376Z" fill="#003E7E"/>
<path d="M20.6421 29.2032H64.4975C64.577 29.2032 64.6415 29.2677 64.6415 29.3473V69.0078C64.6415 69.0874 64.577 69.1519 64.4975 69.1519H20.6421C20.5625 69.1519 20.498 69.0874 20.498 69.0078V29.3473C20.498 29.2677 20.5625 29.2032 20.6421 29.2032Z" stroke="#003E7E" stroke-width="2"/>
</svg>
