<svg width="85" height="85" viewBox="0 0 85 85" fill="none" xmlns="http://www.w3.org/2000/svg">
<path d="M53.8191 27.1818C51.212 27.1818 49.0918 25.0616 49.0918 22.4545C49.0918 19.8475 51.212 17.7273 53.8191 17.7273C56.4262 17.7273 58.5463 19.8475 58.5463 22.4545C58.5463 25.0616 56.425 27.1818 53.8191 27.1818ZM53.8191 20.0909C52.5155 20.0909 51.4554 21.151 51.4554 22.4545C51.4554 23.7581 52.5155 24.8182 53.8191 24.8182C55.1226 24.8182 56.1827 23.7581 56.1827 22.4545C56.1827 21.151 55.1226 20.0909 53.8191 20.0909Z" fill="#00AAE7"/>
<path d="M25.4548 35.6909C22.8477 35.6909 20.7275 33.5707 20.7275 30.9636C20.7275 28.3565 22.8477 26.2364 25.4548 26.2364C28.0619 26.2364 30.1821 28.3565 30.1821 30.9636C30.1821 33.5707 28.0607 35.6909 25.4548 35.6909ZM25.4548 28.6C24.1513 28.6 23.0912 29.6601 23.0912 30.9636C23.0912 32.2672 24.1513 33.3273 25.4548 33.3273C26.7584 33.3273 27.8184 32.2672 27.8184 30.9636C27.8184 29.6601 26.7584 28.6 25.4548 28.6Z" fill="#00AAE7"/>
<path d="M41.3261 59.2091C38.0678 59.2091 35.417 56.5583 35.417 53.3C35.417 50.0417 38.0678 47.3909 41.3261 47.3909C44.5844 47.3909 47.2352 50.0417 47.2352 53.3C47.2352 56.5583 44.5844 59.2091 41.3261 59.2091ZM41.3261 49.7545C39.3714 49.7545 37.7806 51.3453 37.7806 53.3C37.7806 55.2547 39.3714 56.8454 41.3261 56.8454C43.2808 56.8454 44.8715 55.2547 44.8715 53.3C44.8715 51.3453 43.2808 49.7545 41.3261 49.7545Z" fill="#00AAE7"/>
<path d="M53.8178 39C53.4881 39 53.1737 38.8629 52.9492 38.6206C52.0699 37.6681 44.3633 29.1602 44.3633 23.6364C44.3633 17.771 48.6048 13 53.8178 13C59.0308 13 63.2724 17.771 63.2724 23.6364C63.2724 29.1602 55.5657 37.6681 54.6865 38.6206C54.4619 38.8629 54.1476 39 53.8178 39ZM53.8178 15.3636C49.9072 15.3636 46.7269 19.0757 46.7269 23.6364C46.7269 27.1015 51.2521 33.0661 53.8178 36.0395C56.3836 33.0637 60.9087 27.0979 60.9087 23.6364C60.9087 19.0757 57.7273 15.3636 53.8178 15.3636V15.3636Z" fill="#003E7E"/>
<path d="M25.4545 47.5091C25.1248 47.5091 24.8105 47.372 24.5859 47.1297C23.7066 46.1772 16 37.6693 16 32.1455C16 26.2801 20.2415 21.5091 25.4545 21.5091C30.6675 21.5091 34.9091 26.2801 34.9091 32.1455C34.9091 37.6693 27.2025 46.1772 26.3232 47.1297C26.0986 47.372 25.7843 47.5091 25.4545 47.5091V47.5091ZM25.4545 23.8727C21.5439 23.8727 18.3636 27.5848 18.3636 32.1455C18.3636 35.6105 22.8888 41.5752 25.4545 44.5486C28.0203 41.5728 32.5455 35.607 32.5455 32.1455C32.5455 27.5848 29.364 23.8727 25.4545 23.8727V23.8727Z" fill="#003E7E"/>
<path d="M41.326 72.2092C41.0104 72.2092 40.7079 72.0839 40.4857 71.8582C40.0378 71.4055 29.5078 60.6841 29.5078 54.008C29.5078 47.1003 34.8094 41.4807 41.326 41.4807C47.8425 41.4807 53.1442 47.1003 53.1442 54.008C53.1442 60.6829 42.6142 71.4055 42.1663 71.8582C41.9441 72.0839 41.6415 72.2092 41.326 72.2092ZM41.326 43.8455C36.113 43.8455 31.8714 48.4038 31.8714 54.0092C31.8714 58.3405 38.0701 65.8486 41.326 69.322C44.5819 65.8463 50.7805 58.3358 50.7805 54.0092C50.7805 48.4038 46.539 43.8455 41.326 43.8455Z" fill="#003E7E"/>
<path d="M66.6089 43.2545C66.6089 38.8344 65.2619 34.7273 62.956 31.3232C62.8243 31.1288 62.8451 30.881 62.9886 30.7246C63.1852 30.5103 63.5026 30.5434 63.6462 30.7535C66.0778 34.3133 67.4998 38.6171 67.4998 43.2545C67.4998 53.5229 60.525 62.1635 51.0537 64.6948C50.8028 64.7618 50.5361 64.5712 50.5361 64.2736C50.5361 64.0661 50.6814 63.8724 50.9031 63.8122C59.9526 61.3553 66.6089 53.0829 66.6089 43.2545Z" stroke="#003E7E"/>
</svg>

