<svg width="85" height="85" viewBox="0 0 85 85" fill="none" xmlns="http://www.w3.org/2000/svg">
<path d="M66.0333 39.5939V38.5373C66.0333 35.6699 64.8942 32.92 62.8667 30.8924C60.8391 28.8649 58.0892 27.7258 55.2218 27.7258C52.3544 27.7258 49.6045 28.8649 47.5769 30.8924C45.5494 32.92 44.4103 35.6699 44.4103 38.5373V42.4687H40.4789C40.2182 42.4687 39.9682 42.5723 39.7839 42.7566C39.5996 42.9409 39.496 43.1909 39.496 43.4516V47.3831C39.496 47.6437 39.5996 47.8937 39.7839 48.0781C39.9682 48.2624 40.2182 48.3659 40.4789 48.3659H40.5772L41.5079 57.2117H37.5303V14.9486C37.5303 14.1666 37.2196 13.4166 36.6667 12.8636C36.1137 12.3107 35.3637 12 34.5817 12C33.7997 12 33.0497 12.3107 32.4967 12.8636C31.9438 13.4166 31.6331 14.1666 31.6331 14.9486V57.2117H21.8045C21.2833 57.2123 20.7837 57.4196 20.4152 57.7881C20.0467 58.1566 19.8394 58.6563 19.8387 59.1774V62.005L17.9024 69.7506C17.8662 69.8955 17.8634 70.0467 17.8944 70.1928C17.9254 70.3389 17.9893 70.4761 18.0812 70.5938C18.1731 70.7115 18.2907 70.8067 18.4249 70.8722C18.5591 70.9377 18.7065 70.9718 18.8559 70.9718H65.0504C65.3111 70.9718 65.5611 70.8682 65.7454 70.6839C65.9298 70.4996 66.0333 70.2496 66.0333 69.9889V66.1091L67.4206 52.9299C67.6108 51.8179 67.8864 52.1486 68.1612 51.6815C68.4361 51.2143 68.9849 50.8181 68.9819 50.2761V43.2059C68.9809 42.3565 68.3838 41.8556 67.8467 41.1976C67.3096 40.5396 66.7536 40.2016 66.0333 39.5939ZM46.376 38.5373C46.376 37.3757 46.6048 36.2254 47.0494 35.1522C47.4939 34.079 48.1455 33.1038 48.9669 32.2824C49.7883 31.461 50.7635 30.8094 51.8367 30.3649C52.9099 29.9203 54.0602 29.6915 55.2218 29.6915C56.3835 29.6915 57.5337 29.9203 58.6069 30.3649C59.6802 30.8094 60.6553 31.461 61.4767 32.2824C62.2981 33.1038 62.9497 34.079 63.3942 35.1522C63.8388 36.2254 64.0676 37.3757 64.0676 38.5373V39.5202H54.9761C54.1267 39.5211 53.3037 39.815 52.6457 40.3521C51.9877 40.8892 51.5351 41.6368 51.3641 42.4687H46.376V38.5373ZM41.4617 44.4345H51.2904V46.4002H41.4617V44.4345ZM42.5534 48.3659H51.2904L51.6753 50.2761C51.677 50.6773 52.0702 50.8923 52.2257 51.2621C52.3813 51.6319 52.3596 51.819 52.6451 52.1008C52.9189 52.3743 52.9825 52.3819 53.3411 52.5275C53.6996 52.6731 53.8675 52.5326 54.2544 52.5275C54.9641 52.5148 55.5806 52.1008 56.2047 52.5275C56.7447 53.0121 57.4448 53.2801 58.1704 53.2801C58.896 53.2801 59.2341 52.5854 59.7741 52.1008C60.314 52.5852 61.3758 53.2799 62.1012 53.2801C62.8265 53.2803 63.8469 52.585 64.387 52.1008C64.7683 52.4434 64.9126 52.8239 65.4141 52.9299L64.1659 65.0746H50.092L49.3246 62.005V59.1774C49.324 58.6563 49.1167 58.1566 48.7482 57.7881C48.3797 57.4196 47.8801 57.2123 47.3589 57.2117H43.4842L42.5534 48.3659ZM33.5988 14.9486C33.5988 14.6879 33.7024 14.4379 33.8867 14.2536C34.071 14.0693 34.321 13.9657 34.5817 13.9657C34.8424 13.9657 35.0924 14.0693 35.2767 14.2536C35.461 14.4379 35.5646 14.6879 35.5646 14.9486V57.2117H33.5988V14.9486ZM21.8045 59.1774H47.3589V61.1431H21.8045V59.1774ZM24.0461 69.006L25.5204 63.1089H27.4257L25.9514 69.006H24.0461ZM21.589 63.1089H23.4943L22.02 69.006H20.1147L21.589 63.1089ZM29.4519 63.1089H31.5026L30.7655 69.006H27.9776L29.4519 63.1089ZM32.7464 69.006L33.4836 63.1089H35.6798L36.4169 69.006H32.7464ZM38.3979 69.006L37.6608 63.1089H39.7115L41.1858 69.006H38.3979ZM43.212 69.006L41.7377 63.1089H43.643L45.1172 69.006H43.212ZM47.1434 69.006L45.6691 63.1089H47.5744L49.0487 69.006H47.1434ZM64.0676 69.006H51.0749L50.5834 67.0403H64.0676V69.006ZM67.8467 50.6867C67.8513 50.9457 66.9269 50.7861 66.7536 50.9786C66.5803 51.1711 66.3405 51.2907 66.0824 51.3133C65.9494 51.3199 65.8164 51.2995 65.6915 51.2532C65.5666 51.2068 65.5106 51.5372 65.4141 51.4454C65.3176 51.3536 64.8589 51.3845 64.8064 51.2621C64.1944 51.8575 64.5181 50.6331 64.5181 50.4999V46.4002H63.2862V50.2761C63.2862 50.5368 63.7326 51.0688 63.5483 51.2532C63.364 51.4375 62.5509 51.8179 62.2903 51.8179C62.0296 51.8179 60.9282 51.6297 60.7439 51.4454C60.5596 51.2611 60.4294 50.5923 60.4294 50.3317V46.4002H59.1533V50.3317C59.1533 50.5923 59.3376 50.7943 59.1533 50.9786C58.9689 51.1629 58.7767 51.6815 58.5161 51.6815C58.2554 51.6815 57.023 52.2851 56.8386 52.1008C56.6543 51.9165 56.629 50.5384 56.629 50.2777V46.4002H55.2218V50.3317C55.2221 50.5897 55.1208 50.8376 54.9397 51.0215C54.7587 51.2054 54.5125 51.3107 54.2544 51.3145H54.2409C53.9906 51.312 53.7515 51.2104 53.576 51.0319C53.4757 50.9334 53.3959 50.8161 53.3411 50.6867C53.2863 50.5573 52.6461 50.4167 52.6451 50.2761V42.875C52.6456 42.419 53.2536 41.198 53.576 40.8755C53.8985 40.553 54.4837 40.876 54.9397 40.8755L65.2257 40.7782C65.6818 40.7787 66.4312 41.4255 66.7536 41.748C67.0761 42.0704 67.7414 42.7499 67.7419 43.2059L67.8467 50.6867Z" fill="#003E7E"/>
<path d="M60.6133 40.3589H65.1587C65.4812 40.3589 65.8049 40.4039 66.0956 40.5435C66.9721 40.9648 68.1617 41.8817 68.1617 43.2944C68.1617 44.8581 68.1617 48.2441 68.1617 50.0548C68.1617 50.3001 68.1382 50.5484 68.0166 50.7615C67.6855 51.3416 66.8942 52.1008 66.0649 52.1008C65.6599 52.1008 65.3093 52.0329 65.0075 51.9245C64.2587 51.6553 63.9681 50.8151 63.9681 50.0195V46.2298" stroke="#00AAE7" stroke-width="2"/>
<path d="M64.3868 50.8427C64.247 51.2621 62.8772 52.5202 61.8707 52.5202C60.8642 52.5202 60.0535 51.961 59.7739 51.6814V46.2298" stroke="#00AAE7" stroke-width="2"/>
<path d="M59.7742 51.2621C59.6189 51.6814 59.0287 52.5202 57.9104 52.5202C56.7921 52.5202 56.3106 51.961 56 51.6814V46.2298" stroke="#00AAE7" stroke-width="2"/>
<path d="M55.9998 50.8427C55.8645 51.2766 55.2963 52.1008 54.3224 52.1008C53.8724 52.1008 53.4484 51.894 53.0957 51.643C52.4757 51.2016 52.2256 50.4193 52.2256 49.6583V42.7339C52.2256 42.5488 52.2386 42.3631 52.2938 42.1865C52.5282 41.4377 53.2075 40.3589 54.3224 40.3589C55.621 40.3589 61.8302 40.3589 64.8062 40.3589" stroke="#00AAE7" stroke-width="2"/>
<path d="M20.0582 42.359C20.1083 42.5092 20.2044 42.6399 20.3329 42.7326C20.4614 42.8252 20.6158 42.875 20.7742 42.875C20.9326 42.875 21.087 42.8252 21.2155 42.7326C21.344 42.6399 21.4401 42.5092 21.4902 42.359C21.6889 41.7677 22.0217 41.2305 22.4627 40.7895C22.9038 40.3485 23.4409 40.0156 24.0321 39.817C24.1824 39.7669 24.3132 39.6708 24.4059 39.5422C24.4985 39.4137 24.5484 39.2593 24.5484 39.1008C24.5484 38.9423 24.4985 38.7879 24.4059 38.6594C24.3132 38.5308 24.1824 38.4347 24.0321 38.3846C23.4409 38.186 22.9038 37.8531 22.4627 37.4121C22.0217 36.9711 21.6889 36.4339 21.4902 35.8426C21.4401 35.6924 21.344 35.5617 21.2155 35.4691C21.087 35.3764 20.9326 35.3266 20.7742 35.3266C20.6158 35.3266 20.4614 35.3764 20.3329 35.4691C20.2044 35.5617 20.1083 35.6924 20.0582 35.8426C19.8595 36.4339 19.5267 36.9711 19.0856 37.4121C18.6446 37.8531 18.1075 38.186 17.5163 38.3846C17.3659 38.4347 17.2352 38.5308 17.1425 38.6594C17.0499 38.7879 17 38.9423 17 39.1008C17 39.2593 17.0499 39.4137 17.1425 39.5422C17.2352 39.6708 17.3659 39.7669 17.5163 39.817C18.1075 40.0156 18.6446 40.3485 19.0856 40.7895C19.5267 41.2305 19.8595 41.7677 20.0582 42.359V42.359ZM20.7742 37.7389C21.1458 38.2683 21.6066 38.7291 22.1359 39.1008C21.6066 39.4725 21.1458 39.9333 20.7742 40.4627C20.4026 39.9333 19.9418 39.4725 19.4125 39.1008C19.9418 38.7291 20.4026 38.2683 20.7742 37.7389V37.7389Z" fill="#003E7E"/>
<path d="M68.4267 23.6276C67.7699 23.4069 67.173 23.0371 66.683 22.547C66.193 22.057 65.8231 21.4601 65.6024 20.8032C65.5467 20.6362 65.4399 20.491 65.2971 20.3881C65.1544 20.2852 64.9828 20.2298 64.8068 20.2298C64.6308 20.2298 64.4593 20.2852 64.3165 20.3881C64.1737 20.491 64.0669 20.6362 64.0112 20.8032C63.7905 21.4601 63.4207 22.057 62.9307 22.547C62.4406 23.0371 61.8438 23.4069 61.1869 23.6276C61.0199 23.6833 60.8746 23.7901 60.7716 23.9329C60.6687 24.0757 60.6133 24.2473 60.6133 24.4234C60.6133 24.5994 60.6687 24.771 60.7716 24.9139C60.8746 25.0567 61.0199 25.1635 61.1869 25.2191C61.8438 25.4398 62.4406 25.8097 62.9307 26.2997C63.4207 26.7898 63.7905 27.3866 64.0112 28.0436C64.0669 28.2105 64.1737 28.3558 64.3165 28.4587C64.4593 28.5616 64.6308 28.6169 64.8068 28.6169C64.9828 28.6169 65.1544 28.5616 65.2971 28.4587C65.4399 28.3558 65.5467 28.2105 65.6024 28.0436C65.8231 27.3866 66.193 26.7898 66.683 26.2997C67.173 25.8097 67.7699 25.4398 68.4267 25.2191C68.5938 25.1635 68.7391 25.0567 68.842 24.9139C68.945 24.771 69.0004 24.5994 69.0004 24.4234C69.0004 24.2473 68.945 24.0757 68.842 23.9329C68.7391 23.7901 68.5938 23.6833 68.4267 23.6276ZM64.8068 25.9366C64.3939 25.3484 63.882 24.8364 63.2939 24.4234C63.882 24.0104 64.3939 23.4984 64.8068 22.9102C65.2198 23.4984 65.7317 24.0104 66.3198 24.4234C65.7317 24.8364 65.2198 25.3484 64.8068 25.9366Z" fill="#003E7E"/>
<path d="M25.3869 52.9395C25.5629 52.9395 25.7345 52.8841 25.8773 52.7812C26.02 52.6782 26.1268 52.533 26.1825 52.366C26.4032 51.7091 26.7731 51.1122 27.2631 50.6222C27.7531 50.1322 28.3499 49.7623 29.0068 49.5416C29.1739 49.486 29.3191 49.3792 29.4221 49.2364C29.5251 49.0935 29.5805 48.9219 29.5805 48.7459C29.5805 48.5698 29.5251 48.3982 29.4221 48.2554C29.3191 48.1126 29.1739 48.0058 29.0068 47.9501C28.3499 47.7294 27.7531 47.3596 27.2631 46.8696C26.7731 46.3795 26.4032 45.7827 26.1825 45.1257C26.1268 44.9588 26.02 44.8136 25.8772 44.7107C25.7344 44.6078 25.5629 44.5524 25.3869 44.5524C25.2109 44.5524 25.0394 44.6078 24.8966 44.7107C24.7538 44.8136 24.647 44.9588 24.5913 45.1257C24.3706 45.7827 24.0008 46.3795 23.5107 46.8696C23.0207 47.3596 22.4239 47.7294 21.767 47.9501C21.6 48.0058 21.4547 48.1126 21.3517 48.2554C21.2488 48.3982 21.1934 48.5698 21.1934 48.7459C21.1934 48.9219 21.2488 49.0935 21.3517 49.2364C21.4547 49.3792 21.6 49.486 21.767 49.5416C22.4239 49.7623 23.0207 50.1322 23.5107 50.6222C24.0008 51.1122 24.3706 51.7091 24.5913 52.366C24.647 52.533 24.7538 52.6782 24.8966 52.7812C25.0393 52.8841 25.2109 52.9395 25.3869 52.9395V52.9395ZM25.3869 47.2327C25.7998 47.8209 26.3118 48.3329 26.8999 48.7459C26.3118 49.1589 25.7998 49.6709 25.3869 50.259C24.974 49.6709 24.4621 49.1589 23.8739 48.7459C24.4621 48.3329 24.974 47.8209 25.3869 47.2327V47.2327Z" fill="#003E7E"/>
</svg>
