<svg width="85" height="85" viewBox="0 0 85 85" fill="none" xmlns="http://www.w3.org/2000/svg">
<path d="M22.0938 47.5938C14.7099 47.5938 8.69832 53.1974 8.05668 60.4071C7.99395 61.1119 8.57363 61.6874 9.28123 61.6874C9.98884 61.6874 10.555 61.1116 10.6314 60.4082C11.2606 54.6123 16.1202 50.1562 22.0937 50.1562C28.0672 50.1562 32.9268 54.6124 33.556 60.4082C33.6323 61.1116 34.1985 61.6874 34.9062 61.6874C35.6138 61.6874 36.1934 61.1119 36.1307 60.4071C35.4892 53.1974 29.4776 47.5938 22.0938 47.5938Z" fill="#00AAE7"/>
<path d="M62.0938 47.5938C54.7099 47.5938 48.6983 53.1974 48.0567 60.4071C47.9939 61.1119 48.5736 61.6874 49.2812 61.6874C49.9888 61.6874 50.555 61.1116 50.6314 60.4082C51.2606 54.6123 56.1202 50.1562 62.0937 50.1562C68.0672 50.1562 72.9268 54.6124 73.556 60.4082C73.6323 61.1116 74.1985 61.6874 74.9062 61.6874C75.6138 61.6874 76.1934 61.1119 76.1307 60.4071C75.4892 53.1974 69.4776 47.5938 62.0938 47.5938Z" fill="#00AAE7"/>
<path d="M42.0938 19C37.0969 19 33.125 22.9719 33.125 27.9688C33.125 32.9656 37.0969 36.9375 42.0938 36.9375C47.0907 36.9375 51.0625 32.9656 51.0625 27.9688C51.0625 22.9719 47.0907 19 42.0938 19ZM42.0938 34.3751C38.5063 34.3751 35.6875 31.5562 35.6875 27.9688C35.6875 24.3813 38.5063 21.5625 42.0938 21.5625C45.6812 21.5625 48.5001 24.3813 48.5001 27.9688C48.5001 31.5562 45.6812 34.3751 42.0938 34.3751Z" fill="#003E7E"/>
<path d="M42.0938 34.375C34.7099 34.375 28.6983 39.9787 28.0567 47.1885C27.9939 47.8933 28.5736 48.4688 29.2812 48.4688C29.9888 48.4688 30.555 47.893 30.6314 47.1895C31.2606 41.3937 36.1202 36.9376 42.0937 36.9376C48.0672 36.9376 52.9268 41.3937 53.556 47.1895C53.6323 47.893 54.1985 48.4688 54.9062 48.4688C55.6138 48.4688 56.1934 47.8933 56.1307 47.1885C55.4892 39.9787 49.4777 34.375 42.0938 34.375Z" fill="#003E7E"/>
<path d="M22.0938 32.2188C17.0969 32.2188 13.125 36.1906 13.125 41.1875C13.125 46.1844 17.0969 50.1562 22.0938 50.1562C27.0906 50.1562 31.0625 46.1844 31.0625 41.1875C31.0625 36.1906 27.0906 32.2188 22.0938 32.2188ZM22.0938 47.5938C18.5063 47.5938 15.6875 44.775 15.6875 41.1875C15.6875 37.6 18.5063 34.7812 22.0938 34.7812C25.6812 34.7812 28.5001 37.6 28.5001 41.1875C28.4999 44.775 25.6812 47.5938 22.0938 47.5938Z" fill="#003E7E"/>
<path d="M62.0938 32.2188C57.0969 32.2188 53.125 36.1906 53.125 41.1875C53.125 46.1844 57.0969 50.1562 62.0938 50.1562C67.0906 50.1562 71.0625 46.1844 71.0625 41.1875C71.0625 36.1906 67.0906 32.2188 62.0938 32.2188ZM62.0938 47.5938C58.5063 47.5938 55.6875 44.775 55.6875 41.1875C55.6875 37.6 58.5062 34.7812 62.0938 34.7812C65.6814 34.7812 68.5001 37.6 68.5001 41.1875C68.4999 44.775 65.6812 47.5938 62.0938 47.5938Z" fill="#003E7E"/>
</svg>
