<svg width="85" height="85" viewBox="0 0 85 85" fill="none" xmlns="http://www.w3.org/2000/svg">
<path d="M32.7861 53.9592C31.2319 54.7162 30.1582 56.3119 30.1582 58.1538C30.1582 60.1847 31.4658 61.915 33.2836 62.5513V64.6897C33.2836 67.308 35.4119 69.4382 38.0278 69.4382H44.3885C47.0067 69.4382 49.1369 67.308 49.1369 64.6897V62.5513C50.9547 61.915 52.2624 60.1845 52.2624 58.1538C52.2624 56.3118 51.1886 54.7161 49.6343 53.959C50.263 51.6234 51.5375 49.8843 52.8779 48.0601C54.9399 45.2538 57.277 42.0731 57.2719 36.4704C57.2719 35.9702 57.2513 35.4568 57.2105 34.9444C57.1476 34.1538 56.4575 33.5659 55.6654 33.6269C54.9816 33.6813 54.4479 34.2064 54.3571 34.859C54.343 34.9607 54.3396 35.0655 54.3481 35.1721C54.3828 35.609 54.4005 36.0457 54.4005 36.4715C54.4046 41.1325 52.5391 43.6716 50.5638 46.3597C49.065 48.3995 47.5226 50.5021 46.7877 53.4906H35.6323C34.8974 50.5024 33.3545 48.3999 31.8555 46.3603C29.8796 43.6722 28.0135 41.1331 28.0196 36.472C28.0259 31.5019 30.1553 28.3631 31.9406 26.6052C34.3989 24.1846 37.7661 22.8241 41.1897 22.8723C41.2035 22.8724 41.2172 22.8724 41.2309 22.8723C44.0204 22.8299 46.8181 23.7392 49.1021 25.4278C49.7763 25.881 50.6387 25.7643 51.1101 25.1268C51.4986 24.6013 51.4754 23.8982 51.0982 23.4033C51.0178 23.2978 50.9212 23.2017 50.8091 23.1188C48.0283 21.0631 44.6201 19.9572 41.21 20.0013C37.0336 19.9503 32.9229 21.6087 29.9261 24.5597C26.8066 27.6316 25.1545 31.7497 25.1485 36.4687C25.141 42.0736 27.4792 45.2548 29.5421 48.0613C30.8826 49.8852 32.1574 51.624 32.7861 53.9592ZM46.2656 64.6898C46.2656 65.7249 45.4237 66.5669 44.3887 66.5669H38.028C36.9953 66.5669 36.1552 65.7249 36.1552 64.6898V62.8129H46.2656V64.6898ZM34.8211 56.3623H47.5996C48.5873 56.3623 49.3911 57.166 49.3911 58.1538C49.3911 59.1394 48.5875 59.9413 47.5996 59.9413H34.8211C33.8333 59.9413 33.0296 59.1394 33.0296 58.1538C33.0296 57.166 33.8333 56.3623 34.8211 56.3623Z" fill="#003E7E"/>
<path d="M55.6654 33.6269C56.4575 33.5659 57.1476 34.1538 57.2105 34.9444C57.1307 30.94 53.697 25.4278 51.0982 23.4033C51.4754 23.8982 51.4986 24.6013 51.1101 25.1268C50.6387 25.7643 49.7763 25.881 49.1021 25.4278C50.8861 27.147 53.697 29.8017 54.3571 34.859C54.4479 34.2064 54.9816 33.6813 55.6654 33.6269Z" fill="#003E7E"/>
<path d="M67.7889 36.3476H61.9572C61.1643 36.3476 60.5215 36.9903 60.5215 37.7833C60.5215 38.5763 61.1643 39.219 61.9572 39.219H67.7889C68.5818 39.219 69.2246 38.5763 69.2246 37.7833C69.2246 36.9903 68.5818 36.3476 67.7889 36.3476V36.3476Z" fill="#003E7E"/>
<path d="M59.5447 27.0995C59.8198 27.0995 60.0979 27.0206 60.3434 26.8557L65.1821 23.6081C65.8406 23.1662 66.016 22.2743 65.5741 21.6159C65.1323 20.9576 64.2404 20.782 63.5819 21.2239L58.7432 24.4716C58.0847 24.9135 57.9093 25.8055 58.3512 26.4638C58.6285 26.8766 59.0823 27.0995 59.5447 27.0995V27.0995Z" fill="#003E7E"/>
<path d="M65.1831 51.9585L60.3444 48.7109C59.686 48.269 58.7939 48.4446 58.3522 49.1029C57.9102 49.7612 58.0858 50.6532 58.7441 51.0951L63.5828 54.3427C63.8283 54.5075 64.1064 54.5865 64.3815 54.5865C64.844 54.5865 65.2979 54.3635 65.575 53.9508C66.0169 53.2923 65.8415 52.4003 65.1831 51.9585Z" fill="#003E7E"/>
<path d="M15.4357 39.2188H21.2634C22.0563 39.2188 22.6991 38.576 22.6991 37.7831C22.6991 36.9901 22.0563 36.3473 21.2634 36.3473H15.4357C14.6428 36.3473 14 36.9901 14 37.7831C14 38.576 14.6428 39.2188 15.4357 39.2188V39.2188Z" fill="#003E7E"/>
<path d="M18.041 23.6081L22.8797 26.8557C23.1252 27.0206 23.4033 27.0995 23.6784 27.0995C24.1409 27.0995 24.5949 26.8766 24.872 26.4638C25.3139 25.8055 25.1383 24.9135 24.48 24.4716L19.6413 21.2239C18.9829 20.782 18.091 20.9576 17.6491 21.6159C17.2072 22.2742 17.3826 23.1662 18.041 23.6081V23.6081Z" fill="#003E7E"/>
<path d="M22.8807 48.7107L18.042 51.9583C17.3836 52.4002 17.2081 53.2922 17.6501 53.9505C17.9271 54.3633 18.381 54.5863 18.8436 54.5863C19.1187 54.5863 19.3968 54.5073 19.6423 54.3425L24.481 51.0949C25.1394 50.6529 25.3148 49.7609 24.8729 49.1026C24.431 48.4444 23.539 48.2688 22.8807 48.7107Z" fill="#003E7E"/>
<path d="M41.4447 49.4052C42.5274 49.4052 43.4051 48.5275 43.4051 47.4449C43.4051 46.3622 42.5274 45.4845 41.4447 45.4845C40.3621 45.4845 39.4844 46.3622 39.4844 47.4449C39.4844 48.5275 40.3621 49.4052 41.4447 49.4052Z" fill="#00AAE7"/>
<path d="M41.4445 28.8216C38.2017 28.8216 35.5635 31.5017 35.5635 34.796C35.5635 35.6209 36.2217 36.2896 37.0337 36.2896C37.8458 36.2896 38.504 35.6209 38.504 34.796C38.504 33.1488 39.8231 31.8088 41.4445 31.8088C43.0659 31.8088 44.385 33.1488 44.385 34.796C44.385 36.4431 43.0659 37.7832 41.4445 37.7832C40.6325 37.7832 39.9743 38.4518 39.9743 39.2768V43.0107C39.9743 43.8357 40.6325 44.5043 41.4445 44.5043C42.2565 44.5043 42.9148 43.8357 42.9148 43.0107V40.5813C45.4485 39.9165 47.3256 37.5747 47.3256 34.796C47.3256 31.5017 44.6873 28.8216 41.4445 28.8216Z" fill="#00AAE7"/>
</svg>
