<svg width="71" height="45" viewBox="0 0 71 45" fill="none" xmlns="http://www.w3.org/2000/svg">
<path d="M46.1395 13.6491C46.1101 13.5062 46.1196 13.3581 46.1672 13.2202C46.2148 13.0823 46.2987 12.9598 46.4099 12.8655C46.5212 12.7712 46.6559 12.7086 46.7997 12.6843C46.9435 12.66 47.0912 12.6749 47.2273 12.7274C52.2424 14.6425 56.3476 18.3836 58.7189 23.1998C58.7688 23.2957 58.799 23.4007 58.8078 23.5085C58.8165 23.6163 58.8037 23.7248 58.7699 23.8275C58.7362 23.9303 58.6823 24.0253 58.6114 24.1069C58.5405 24.1886 58.4539 24.2552 58.3569 24.303C58.2599 24.3507 58.1543 24.3787 58.0463 24.3851C57.9383 24.3915 57.8302 24.3762 57.7282 24.3403C57.6262 24.3043 57.5324 24.2484 57.4523 24.1757C57.3722 24.103 57.3075 24.015 57.2618 23.917C55.0692 19.4674 51.2749 16.0118 46.6404 14.2436C46.5138 14.1943 46.4017 14.114 46.3142 14.0102C46.2267 13.9063 46.1666 13.7822 46.1395 13.6491Z" fill="#003e7d"/>
<path d="M38.8167 6.99998C38.727 6.99979 38.6378 6.98969 38.5513 6.96995C38.4252 6.94099 38.3073 6.89146 38.2041 6.82421C38.1009 6.75695 38.0145 6.67328 37.9498 6.57799C37.8852 6.48269 37.8436 6.37764 37.8274 6.26884C37.8112 6.16004 37.8207 6.04962 37.8554 5.94391L39.1477 2.01245C36.9905 1.55617 34.7321 1.55617 32.575 2.01245L33.8672 5.94391C33.9374 6.15719 33.9037 6.3851 33.7735 6.57752C33.6434 6.76994 33.4275 6.9111 33.1734 6.96995C32.9192 7.0288 32.6476 7.00051 32.4183 6.89132C32.189 6.78212 32.0208 6.60097 31.9507 6.38769L30.397 1.65793C30.3289 1.45025 30.3591 1.22852 30.4814 1.03914C30.6037 0.849761 30.8085 0.707417 31.0531 0.641905C34.1774 -0.213968 37.5452 -0.213968 40.6696 0.641905C40.9141 0.707417 41.119 0.849761 41.2413 1.03914C41.3635 1.22852 41.3938 1.45025 41.3257 1.65793L39.771 6.38769C39.7133 6.56314 39.5888 6.71794 39.4165 6.82848C39.2442 6.93903 39.0336 6.99925 38.8167 6.99998Z" fill="#01a0e0"/>
<path d="M69.3613 38H1.36133V42C1.36133 43.2 2.69466 44 3.36133 44H66.3613C68.7613 44 69.3613 42.6667 69.3613 42V38Z" stroke="#003e7d" stroke-width="2" stroke-linejoin="round"/>
<path d="M66.4693 38.2382H5.25309C4.98429 38.2382 4.72649 38.1314 4.53642 37.9413C4.34635 37.7513 4.23957 37.4935 4.23957 37.2247V36.4078C4.37246 28.11 7.76203 20.197 13.677 14.3759C19.592 8.55491 27.5583 5.29248 35.8571 5.29248C44.156 5.29248 52.1223 8.55491 58.0373 14.3759C63.9523 20.197 67.3418 28.11 67.4747 36.4078V37.2247C67.4747 37.4921 67.3691 37.7486 67.1807 37.9385C66.9924 38.1283 66.7367 38.236 66.4693 38.2382ZM6.27471 36.2111H65.4558C65.3273 28.4481 62.1532 21.0464 56.6179 15.602C51.0826 10.1575 43.6294 7.10639 35.8653 7.10639C28.1011 7.10639 20.6479 10.1575 15.1126 15.602C9.57729 21.0464 6.40322 28.4481 6.27471 36.2111Z" fill="#003e7d"/>
</svg>
