<svg width="85" height="85" viewBox="0 0 85 85" fill="none" xmlns="http://www.w3.org/2000/svg">
<path d="M72.5874 29.08H11.8926C11.7428 29.08 11.5954 29.0404 11.464 28.9647C11.3327 28.8891 11.2215 28.7799 11.1407 28.6473C11.06 28.5146 11.0123 28.3627 11.0021 28.2055C10.9918 28.0484 11.0194 27.8911 11.0821 27.748L16.4376 15.5454C16.509 15.3825 16.6233 15.2447 16.7669 15.148C16.9106 15.0514 17.0775 15 17.248 15H67.232C67.4025 15 67.5694 15.0514 67.7131 15.148C67.8567 15.2447 67.971 15.3825 68.0424 15.5454L73.3979 27.748C73.4606 27.8911 73.4882 28.0484 73.4779 28.2055C73.4677 28.3627 73.42 28.5146 73.3393 28.6473C73.2585 28.7799 73.1473 28.8891 73.016 28.9647C72.8846 29.0404 72.7372 29.08 72.5874 29.08ZM13.2 27.748L71.28 27.32L66.6607 16.8773H17.8193L13.2 27.748Z" fill="#003E7E"/>
<path d="M69.8896 71.2726H14.512C14.2755 71.2726 14.0486 71.1787 13.8813 71.0114C13.7141 70.8441 13.6201 70.6173 13.6201 70.3807V37.3807H15.4039V69.4888H68.9977V37.3807H70.7815V70.3807C70.7815 70.6173 70.6875 70.8441 70.5202 71.0114C70.353 71.1787 70.1261 71.2726 69.8896 71.2726Z" fill="#003E7E"/>
<path d="M62.7542 71.2726H47.5921C47.3555 71.2726 47.1287 71.1787 46.9614 71.0114C46.7942 70.8441 46.7002 70.6173 46.7002 70.3807V45.4077C46.7002 45.1712 46.7942 44.9443 46.9614 44.7771C47.1287 44.6098 47.3555 44.5159 47.5921 44.5159H62.7542C62.9908 44.5159 63.2176 44.6098 63.3849 44.7771C63.5522 44.9443 63.6461 45.1712 63.6461 45.4077V70.3807C63.6461 70.6173 63.5522 70.8441 63.3849 71.0114C63.2176 71.1787 62.9908 71.2726 62.7542 71.2726ZM48.484 69.4888H61.8623V46.2996H48.484V69.4888Z" fill="#003E7E"/>
<path d="M41.8324 63.4H20.6472C20.4225 63.4 20.2069 63.3073 20.048 63.1423C19.8891 62.9772 19.7998 62.7534 19.7998 62.52V44.92C19.7998 44.6866 19.8891 44.4628 20.048 44.2977C20.2069 44.1327 20.4225 44.04 20.6472 44.04H41.8324C42.0571 44.04 42.2727 44.1327 42.4316 44.2977C42.5905 44.4628 42.6798 44.6866 42.6798 44.92V62.52C42.6798 62.7534 42.5905 62.9772 42.4316 63.1423C42.2727 63.3073 42.0571 63.4 41.8324 63.4ZM21.4946 61.64H40.985V45.8H21.4946V61.64Z" fill="#003E7E"/>
<path d="M26.8409 28.2001H11.8809V33.4801C11.8809 35.2401 13.3341 38.7601 19.1471 38.7601C24.9602 38.7601 26.6984 35.2401 26.8409 33.4801V28.2001Z" stroke="#00AAE7" stroke-width="2" stroke-linejoin="round"/>
<path d="M72.6006 28.2001H57.6406V33.4801C57.6406 35.2401 59.0939 38.7601 64.9069 38.7601C70.7199 38.7601 72.4581 35.2401 72.6006 33.4801V28.2001Z" stroke="#00AAE7" stroke-width="2" stroke-linejoin="round"/>
<path d="M41.8008 28.2001H26.8408V33.4801C26.8408 35.2401 28.2941 38.7601 34.1071 38.7601C39.9201 38.7601 41.6583 35.2401 41.8008 33.4801V28.2001Z" stroke="#00AAE7" stroke-width="2" stroke-linejoin="round"/>
<path d="M57.6407 28.2001H42.6807V33.4801C42.6807 35.2401 44.1339 38.7601 49.947 38.7601C55.76 38.7601 57.4982 35.2401 57.6407 33.4801V28.2001Z" stroke="#00AAE7" stroke-width="2" stroke-linejoin="round"/>
</svg>



