<svg width="85" height="85" viewBox="0 0 85 85" fill="none" xmlns="http://www.w3.org/2000/svg">
<path d="M30.1416 77.973C29.9805 77.9731 29.8218 77.9348 29.6785 77.8613C29.5352 77.7878 29.4115 77.6812 29.3176 77.5504L17.7017 61.3909C17.5464 61.1751 17.482 60.9069 17.5226 60.6442C17.5632 60.3814 17.7054 60.1451 17.9186 59.9862L21.848 57.0642C21.402 53.597 21.2916 50.375 23.3064 46.6828C23.3231 46.6519 23.3417 46.6221 23.3622 46.5936C24.625 44.7796 25.7492 42.8728 26.725 40.8896L27.7061 34.3362C27.8474 33.3894 28.3413 32.5311 29.0889 31.9333C29.8365 31.3355 30.7825 31.0424 31.7371 31.1128C32.6917 31.1832 33.5844 31.6119 34.2363 32.3129C34.8881 33.0139 35.2508 33.9354 35.2517 34.8926C35.2517 34.9179 35.2466 35.0233 35.2446 35.0487L35.0804 44.8798L55.0466 34.8794C55.6953 34.5529 56.4177 34.401 57.1429 34.4384C57.8681 34.4759 58.5711 34.7015 59.1826 35.0931C59.7942 35.4846 60.2933 36.0287 60.6308 36.6717C60.9683 37.3147 61.1325 38.0344 61.1074 38.7602L62.4514 38.0365C63.3084 37.575 64.3112 37.4644 65.2483 37.728C66.1854 37.9916 66.9835 38.6087 67.4743 39.4494C67.7526 39.9006 67.9353 40.4042 68.0112 40.929C68.087 41.4537 68.0543 41.9884 67.9152 42.5C67.7819 42.9961 67.5495 43.4601 67.2319 43.8639C66.9144 44.2677 66.5183 44.6029 66.0676 44.8494L65.6976 45.0521C66.2717 45.4496 66.7203 46.0026 66.9909 46.6463C67.3811 47.5236 67.4199 48.5172 67.0994 49.4223C66.7788 50.3274 66.1233 51.075 65.2679 51.5112C64.5037 51.8994 63.4882 52.4497 62.3895 53.0588C62.9752 53.4181 63.4567 53.9244 63.7864 54.5273C64.116 55.1301 64.2822 55.8088 64.2686 56.4957C64.255 57.1827 64.062 57.8542 63.7087 58.4435C63.3554 59.0329 62.8542 59.5196 62.2547 59.8554C53.9779 65.59 45.1816 70.536 35.9814 74.6284L30.6635 77.8281C30.5059 77.9228 30.3255 77.9729 30.1416 77.973ZM19.9294 61.0179L30.4182 75.6125L34.9912 72.8619C35.0278 72.8399 35.0657 72.8202 35.1047 72.8031C44.2398 68.7414 52.9737 63.8317 61.1916 58.1385C61.5055 57.9742 61.769 57.7279 61.954 57.4258C62.1391 57.1236 62.2388 56.777 62.2426 56.4227C62.2424 56.0809 62.1484 55.7458 61.9709 55.4537C61.719 55.0243 61.3087 54.7107 60.8282 54.5803C60.3476 54.45 59.8351 54.5132 59.4007 54.7564L58.4074 55.3058C58.2912 55.3708 58.1634 55.4123 58.0312 55.4279C57.8989 55.4435 57.7649 55.4329 57.6368 55.3967C57.5086 55.3605 57.3889 55.2995 57.2844 55.217C57.1798 55.1345 57.0926 55.0323 57.0275 54.9161C56.9625 54.7999 56.921 54.672 56.9054 54.5398C56.8898 54.4076 56.9004 54.2736 56.9366 54.1454C56.9728 54.0173 57.0339 53.8975 57.1163 53.793C57.1988 53.6885 57.301 53.6012 57.4172 53.5362C59.7483 52.2186 62.6399 50.5777 64.3497 49.7112C64.7405 49.5116 65.0405 49.1704 65.1884 48.7571C65.3362 48.3439 65.3208 47.8898 65.1453 47.4875C65.0671 47.2803 64.9479 47.091 64.7948 46.9309C64.6416 46.7709 64.4577 46.6435 64.2541 46.5563C64.0505 46.4691 63.8314 46.424 63.6099 46.4236C63.3884 46.4232 63.1691 46.4676 62.9652 46.5541C62.7245 46.6623 62.4511 46.6723 62.2031 46.582C61.9551 46.4918 61.7521 46.3083 61.6372 46.0707C61.5224 45.8331 61.5047 45.56 61.5881 45.3096C61.6714 45.0592 61.8491 44.8512 62.0834 44.7298L65.0895 43.0747C65.302 42.9588 65.4887 42.8009 65.6384 42.6106C65.788 42.4204 65.8975 42.2017 65.9601 41.9679C66.0258 41.7293 66.0424 41.4798 66.009 41.2345C65.9756 40.9892 65.8927 40.7533 65.7655 40.5409C65.5453 40.1354 65.1746 39.8326 64.7333 39.6978C64.2919 39.563 63.8153 39.607 63.4061 39.8203L59.3774 41.9933C59.1539 42.1151 58.8927 42.1483 58.6458 42.0864C58.399 42.0244 58.1844 41.8719 58.0448 41.659C57.9053 41.4462 57.8509 41.1886 57.8926 40.9375C57.9342 40.6864 58.0688 40.4602 58.2696 40.3037C58.6872 39.971 58.9665 39.4952 59.0536 38.9684C59.1406 38.4416 59.0291 37.9012 58.7407 37.4519C58.4522 37.0026 58.0074 36.6762 57.4922 36.5359C56.977 36.3957 56.4281 36.4515 55.9517 36.6926L34.4936 47.4358C34.3378 47.514 34.1644 47.5506 33.9903 47.5421C33.8162 47.5337 33.6472 47.4805 33.4997 47.3877C33.3521 47.2948 33.231 47.1655 33.148 47.0122C33.0651 46.8589 33.023 46.6868 33.026 46.5125L33.2166 35.0315C33.2166 35.0112 33.2166 34.9119 33.2236 34.8916C33.2234 34.425 33.0383 33.9775 32.709 33.647C32.3796 33.3165 31.9328 33.1299 31.4662 33.1281C31.0425 33.1314 30.6338 33.2852 30.313 33.562C29.9922 33.8388 29.7802 34.2206 29.7149 34.6392L28.7135 41.3365C28.6995 41.4297 28.6725 41.5204 28.6334 41.6061C27.6098 43.73 26.4167 45.768 25.0659 47.7004C23.2547 51.045 23.4696 53.9456 23.9409 57.3835C23.9648 57.5637 23.9398 57.7471 23.8685 57.9144C23.7971 58.0816 23.6821 58.2266 23.5355 58.3342L19.9294 61.0179Z" fill="#003E7E"/>
<path d="M52.6132 58.3788C52.3857 58.3788 52.1648 58.3023 51.9861 58.1616C51.8074 58.0209 51.6812 57.8241 51.6279 57.603C51.5745 57.3819 51.5971 57.1492 51.692 56.9425C51.7869 56.7358 51.9486 56.567 52.151 56.4632C53.0834 55.9859 55.0527 54.873 57.1375 53.6933L58.4084 52.9758C58.6427 52.8438 58.9198 52.8103 59.1788 52.8826C59.4377 52.9549 59.6574 53.1271 59.7894 53.3614C59.9213 53.5957 59.9549 53.8727 59.8825 54.1317C59.8102 54.3907 59.638 54.6103 59.4037 54.7423L58.1348 55.4589C55.9395 56.6994 54.0442 57.7707 53.0733 58.2673C52.931 58.3406 52.7732 58.3789 52.6132 58.3788Z" fill="#003E7E"/>
<path d="M51.9891 52.1446C51.7617 52.1446 51.5408 52.0681 51.3621 51.9274C51.1834 51.7867 51.0572 51.5899 51.0039 51.3688C50.9505 51.1477 50.9731 50.915 51.068 50.7083C51.1629 50.5016 51.3245 50.3328 51.527 50.2291C52.9956 49.477 57.754 47.0101 62.0939 44.7145C62.2117 44.649 62.3414 44.6077 62.4754 44.593C62.6094 44.5783 62.745 44.5904 62.8743 44.6287C63.0035 44.667 63.1238 44.7308 63.2281 44.8161C63.3325 44.9015 63.4187 45.0069 63.4818 45.126C63.5449 45.2451 63.5836 45.3757 63.5956 45.5099C63.6077 45.6442 63.5928 45.7795 63.5519 45.908C63.511 46.0364 63.4449 46.1554 63.3574 46.258C63.2699 46.3606 63.1629 46.4447 63.0425 46.5054C58.6935 48.8061 53.9209 51.2801 52.4493 52.0331C52.307 52.1064 52.1492 52.1447 51.9891 52.1446Z" fill="#003E7E"/>
<path d="M48.7975 47.5098C48.5719 47.5096 48.3527 47.434 48.1748 47.2951C47.997 47.1562 47.8706 46.9619 47.8156 46.743C47.7607 46.5241 47.7804 46.2931 47.8716 46.0867C47.9628 45.8803 48.1203 45.7102 48.3192 45.6034L58.4178 40.2044C58.5352 40.1416 58.6638 40.1025 58.7963 40.0894C58.9288 40.0763 59.0626 40.0894 59.19 40.128C59.3174 40.1666 59.436 40.2299 59.539 40.3143C59.6419 40.3987 59.7273 40.5026 59.7901 40.62C59.8529 40.7374 59.892 40.866 59.9051 40.9985C59.9182 41.131 59.9051 41.2647 59.8665 41.3922C59.8279 41.5196 59.7646 41.6382 59.6802 41.7411C59.5958 41.8441 59.4919 41.9294 59.3746 41.9923L49.2749 47.3902C49.128 47.4687 48.9641 47.5098 48.7975 47.5098Z" fill="#003E7E"/>
<path d="M35.0155 42.6449C34.7871 42.6454 34.5652 42.5686 34.3859 42.4272C34.2066 42.2858 34.0802 42.0879 34.0275 41.8657C33.9747 41.6435 33.9985 41.4099 34.095 41.2029C34.1916 40.996 34.3552 40.8277 34.5594 40.7253L51.1081 32.4358C52.0556 31.9672 53.1449 31.8726 54.1591 32.1709C55.1733 32.4691 56.0379 33.1383 56.581 34.0452C56.89 34.5576 56.9372 34.905 57 35.5C57.0284 35.7673 56.75 35.7314 56.581 35.9405C56.4121 36.1496 56.2673 35.9716 56 36C55.7327 36.0284 55.7096 36.7909 55.5005 36.6219C55.2914 36.4529 55.158 36.2078 55.1297 35.9405C55.0969 35.6373 54.998 35.3449 54.8398 35.0841C54.5641 34.61 54.1174 34.2594 53.5915 34.1042C53.0655 33.9489 52.5001 34.0007 52.0111 34.249L35.4685 42.5324C35.3283 42.6047 35.1732 42.6432 35.0155 42.6449Z" fill="#003E7E"/>
<path d="M20.6009 62.6047C20.44 62.605 20.2814 62.567 20.1381 62.4939C19.9948 62.4207 19.0941 61.1305 19 61L16.1911 57.2077C16.0366 56.9932 15.972 56.7267 16.0112 56.4652C16.0504 56.2037 16.1902 55.9679 16.4009 55.8081L20.1296 52.9763C19.6796 49.5202 19.564 46.3043 21.585 42.5878C21.6023 42.5558 21.6213 42.5247 21.6417 42.4946C22.9064 40.682 24.0312 38.7758 25.0066 36.7925L25.9816 30.2442C26.1214 29.2953 26.6151 28.4344 27.3635 27.8345C28.1119 27.2346 29.0595 26.9401 30.0161 27.0102C30.9727 27.0802 31.8674 27.5097 32.5204 28.2122C33.1734 28.9148 33.5363 29.8384 33.5363 30.7976C33.5363 30.8321 33.5292 30.9456 33.5252 30.98L33.5151 31.4544C33.5148 31.5882 33.4875 31.7207 33.4348 31.8438C33.3822 31.9669 33.3053 32.0781 33.2087 32.1708C33.1121 32.2635 32.9978 32.3358 32.8727 32.3834C32.7475 32.4309 32.614 32.4528 32.4803 32.4476C32.3472 32.4448 32.2159 32.4159 32.094 32.3624C31.9721 32.3089 31.8619 32.2319 31.7698 32.1358C31.6776 32.0397 31.6053 31.9264 31.557 31.8023C31.5086 31.6783 31.4852 31.5459 31.488 31.4128L31.4982 30.9364C31.4982 30.9081 31.5063 30.8006 31.5093 30.7733C31.5037 30.3087 31.315 29.8652 30.9842 29.5389C30.6535 29.2127 30.2073 29.0302 29.7428 29.031C29.3175 29.036 28.9078 29.1914 28.5863 29.4697C28.2647 29.748 28.0522 30.1312 27.9863 30.5513L26.9901 37.2405C26.9758 37.3336 26.9488 37.4243 26.91 37.5101C25.8875 39.6357 24.6937 41.6745 23.3404 43.6064C21.5252 46.9763 21.7431 49.8668 22.2174 53.2905C22.242 53.4686 22.2187 53.6501 22.1499 53.8163C22.0812 53.9825 21.9694 54.1274 21.8262 54.2361L18.4147 56.8277L20.2563 59.5L20.6009 60C19.8789 58.9977 20.4859 60.3142 20.5 60.5C20.5141 60.6858 20.2229 60.3341 20.1381 60.5C20.0532 60.6659 19.9358 60.4026 19.7769 60.5C19.618 60.5974 19.5 60.5 20.6009 62.6077V62.6047Z" fill="#003E7E"/>
<path d="M45.2385 32.8307C44.1146 32.8294 43.0372 32.3823 42.2426 31.5875C41.4479 30.7927 41.0011 29.7151 41 28.5912C41 26.6027 43.8297 22.2699 44.3963 21.4216C44.4942 21.2907 44.6214 21.1845 44.7676 21.1113C44.9138 21.0381 45.075 21 45.2385 21C45.402 21 45.5632 21.0381 45.7094 21.1113C45.8556 21.1845 45.9828 21.2907 46.0807 21.4216C46.6483 22.2699 49.479 26.6027 49.479 28.5912C49.4777 29.7154 49.0305 30.7931 48.2355 31.5879C47.4405 32.3827 46.3627 32.8297 45.2385 32.8307ZM45.2385 23.8693C44.0649 25.7949 43.027 27.8554 43.027 28.5912C43.027 29.178 43.2601 29.7408 43.6751 30.1557C44.09 30.5706 44.6527 30.8037 45.2395 30.8037C45.8263 30.8037 46.3891 30.5706 46.804 30.1557C47.2189 29.7408 47.452 29.178 47.452 28.5912C47.45 27.8554 46.4132 25.7939 45.2385 23.8682V23.8693Z" fill="#00AAE7"/>
<path d="M39.453 18.4612C38.5376 18.4601 37.6599 18.0959 37.0126 17.4486C36.3652 16.8013 36.0011 15.9236 36 15.0081C36 13.4726 37.9986 10.3652 38.6108 9.45C38.7034 9.31156 38.8287 9.19808 38.9756 9.1196C39.1225 9.04111 39.2865 9.00003 39.453 9C39.6198 8.99986 39.7839 9.04086 39.931 9.11936C40.0781 9.19785 40.2036 9.31142 40.2963 9.45C40.9044 10.3622 42.9061 13.4726 42.9061 15.0081C42.905 15.9236 42.5409 16.8013 41.8935 17.4486C41.2462 18.0959 40.3685 18.4601 39.453 18.4612ZM39.453 11.9169C38.8121 12.8625 38.3304 13.9068 38.027 15.0081C38.027 15.3863 38.1773 15.749 38.4447 16.0165C38.7121 16.2839 39.0748 16.4341 39.453 16.4341C39.8312 16.4341 40.194 16.2839 40.4614 16.0165C40.7288 15.749 40.8791 15.3863 40.8791 15.0081C40.5757 13.9068 40.094 12.8625 39.453 11.9169Z" fill="#00AAE7"/>
<path d="M52.3703 20.2311C51.2114 20.2297 50.1005 19.7687 49.2811 18.9492C48.4618 18.1297 48.0011 17.0186 48 15.8598C48 13.8024 50.9392 9.30237 51.528 8.42162C51.626 8.29073 51.7531 8.18448 51.8993 8.11129C52.0455 8.03811 52.2068 8 52.3703 8C52.5338 8 52.695 8.03811 52.8412 8.11129C52.9874 8.18448 53.1145 8.29073 53.2125 8.42162C53.8013 9.30237 56.7415 13.8024 56.7415 15.8598C56.7402 17.0187 56.2792 18.1298 55.4597 18.9493C54.6403 19.7688 53.5292 20.2297 52.3703 20.2311ZM52.3703 10.8672C51.2169 12.7503 50.027 15.0084 50.027 15.8598C50.0205 16.1717 50.0764 16.4817 50.1912 16.7718C50.3061 17.0618 50.4777 17.326 50.696 17.5489C50.9143 17.7717 51.1748 17.9488 51.4624 18.0697C51.75 18.1905 52.0588 18.2528 52.3708 18.2528C52.6827 18.2528 52.9915 18.1905 53.2791 18.0697C53.5667 17.9488 53.8273 17.7717 54.0456 17.5489C54.2638 17.326 54.4354 17.0618 54.5503 16.7718C54.6652 16.4817 54.721 16.1717 54.7145 15.8598C54.7145 15.0074 53.5236 12.7493 52.3703 10.8672Z" fill="#00AAE7"/>
</svg>
