<svg width="85" height="85" viewBox="0 0 85 85" fill="none" xmlns="http://www.w3.org/2000/svg">
<path d="M16.0569 63.6213C15.8117 63.6213 15.5765 63.5297 15.4032 63.3667C15.2298 63.2037 15.1324 62.9826 15.1324 62.752V55.4872H14.1089C12.7559 55.487 11.4583 54.9822 10.5006 54.0836C9.54282 53.185 9.00318 51.966 9 50.6938V25.8038C9.00147 24.5302 9.5402 23.3091 10.498 22.4085C11.4558 21.5079 12.7544 21.0014 14.1089 21H55.0376C56.3919 21.0016 57.6903 21.5083 58.6479 22.4088C59.6055 23.3094 60.1441 24.5303 60.1456 25.8038V50.6938C60.1424 51.966 59.6028 53.185 58.645 54.0836C57.6873 54.9822 56.3896 55.487 55.0367 55.4872H31.8311L16.5081 63.5109C16.3702 63.5833 16.2148 63.6214 16.0569 63.6213ZM14.1089 22.7386C13.2446 22.7395 12.4161 23.0628 11.8049 23.6374C11.1938 24.212 10.85 24.9911 10.849 25.8038V50.6938C10.8517 51.505 11.1964 52.2821 11.8075 52.8548C12.4186 53.4274 13.2462 53.7488 14.1089 53.7486H16.0569C16.3021 53.7486 16.5372 53.8402 16.7106 54.0032C16.884 54.1662 16.9814 54.3873 16.9814 54.6179V61.2733L31.1451 53.8581C31.2825 53.7863 31.4372 53.7486 31.5944 53.7486H55.0376C55.9001 53.7486 56.7275 53.427 57.3384 52.8544C57.9493 52.2818 58.2938 51.5049 58.2965 50.6938V25.8038C58.2955 24.9911 57.9518 24.212 57.3406 23.6374C56.7295 23.0628 55.9009 22.7395 55.0367 22.7386H14.1089Z" fill="#003E7E"/>
<path d="M52.3524 31.4441H16.5898C16.3352 31.4441 16.0911 31.343 15.911 31.163C15.731 30.983 15.6299 30.7388 15.6299 30.4842C15.6299 30.2296 15.731 29.9854 15.911 29.8054C16.0911 29.6254 16.3352 29.5243 16.5898 29.5243H52.3524C52.607 29.5243 52.8511 29.6254 53.0311 29.8054C53.2112 29.9854 53.3123 30.2296 53.3123 30.4842C53.3123 30.7388 53.2112 30.983 53.0311 31.163C52.8511 31.343 52.607 31.4441 52.3524 31.4441Z" fill="#00AAE7"/>
<path d="M52.5838 36.976H16.8213C16.5667 36.976 16.3225 36.8748 16.1425 36.6948C15.9625 36.5148 15.8613 36.2706 15.8613 36.016C15.8613 35.7615 15.9625 35.5173 16.1425 35.3373C16.3225 35.1572 16.5667 35.0561 16.8213 35.0561H52.5838C52.8384 35.0561 53.0826 35.1572 53.2626 35.3373C53.4426 35.5173 53.5438 35.7615 53.5438 36.016C53.5438 36.2706 53.4426 36.5148 53.2626 36.6948C53.0826 36.8748 52.8384 36.976 52.5838 36.976Z" fill="#00AAE7"/>
<path d="M52.5838 42.6588H16.8213C16.5667 42.6588 16.3225 42.5577 16.1425 42.3777C15.9625 42.1976 15.8613 41.9535 15.8613 41.6989C15.8613 41.4443 15.9625 41.2001 16.1425 41.0201C16.3225 40.8401 16.5667 40.739 16.8213 40.739H52.5838C52.8384 40.739 53.0826 40.8401 53.2626 41.0201C53.4426 41.2001 53.5438 41.4443 53.5438 41.6989C53.5438 41.9535 53.4426 42.1976 53.2626 42.3777C53.0826 42.5577 52.8384 42.6588 52.5838 42.6588Z" fill="#00AAE7"/>
<path d="M52.385 48.3417H31.0283C30.7737 48.3417 30.5295 48.2405 30.3495 48.0605C30.1695 47.8805 30.0684 47.6363 30.0684 47.3817C30.0684 47.1271 30.1695 46.883 30.3495 46.7029C30.5295 46.5229 30.7737 46.4218 31.0283 46.4218H52.385C52.6396 46.4218 52.8838 46.5229 53.0638 46.7029C53.2438 46.883 53.345 47.1271 53.345 47.3817C53.345 47.6363 53.2438 47.8805 53.0638 48.0605C52.8838 48.2405 52.6396 48.3417 52.385 48.3417Z" fill="#00AAE7"/>
<path d="M69.8347 70.6986C69.671 70.6985 69.5101 70.6565 69.3672 70.5767L58.9442 64.7739H43.1416C42.1271 64.7744 41.1537 64.3724 40.4351 63.6562C39.7165 62.9399 39.3114 61.9679 39.3086 60.9533V54.8481C39.3086 54.5935 39.4097 54.3494 39.5898 54.1693C39.7698 53.9893 40.0139 53.8882 40.2685 53.8882C40.5231 53.8882 40.7673 53.9893 40.9473 54.1693C41.1273 54.3494 41.2285 54.5935 41.2285 54.8481V60.9533C41.2308 61.4589 41.4335 61.9429 41.7921 62.2992C42.1508 62.6555 42.6361 62.855 43.1416 62.854H59.1937C59.3574 62.8541 59.5183 62.8961 59.6612 62.9759L68.8767 68.1058V63.8139C68.8767 63.5594 68.9778 63.3152 69.1578 63.1352C69.3378 62.9551 69.582 62.854 69.8366 62.854H71.1805C71.6845 62.8535 72.1678 62.6531 72.5243 62.2968C72.8808 61.9405 73.0814 61.4573 73.0821 60.9533V42.8287C73.0832 42.3227 72.8832 41.8369 72.5263 41.4782C72.1694 41.1194 71.6846 40.9171 71.1786 40.9155H59.9473C59.6927 40.9155 59.4485 40.8144 59.2685 40.6344C59.0885 40.4544 58.9874 40.2102 58.9874 39.9556C58.9874 39.701 59.0885 39.4568 59.2685 39.2768C59.4485 39.0968 59.6927 38.9957 59.9473 38.9957H71.1786C72.1933 38.9982 73.1656 39.4032 73.8821 40.1218C74.5985 40.8405 75.0006 41.814 75.0001 42.8287V60.9524C74.9991 61.9656 74.5961 62.937 73.8797 63.6535C73.1632 64.3699 72.1918 64.7729 71.1786 64.7739H70.7946V69.7397C70.7946 69.9942 70.6935 70.2384 70.5134 70.4184C70.3334 70.5985 70.0893 70.6996 69.8347 70.6996V70.6986Z" fill="#003E7E"/>
</svg>
